<svg width="22" height="18" viewBox="0 0 22 18" fill="none" xmlns="http://www.w3.org/2000/svg">
<path d="M16.728 15.6C16.232 15.6 15.872 15.384 15.648 14.952C15.424 14.504 15.312 13.944 15.312 13.272C15.312 12.584 15.456 11.648 15.744 10.464C15.184 10.416 14.232 10.304 12.888 10.128C10.664 12.88 8.816 14.792 7.344 15.864C6.08 16.808 4.768 17.28 3.408 17.28C2.544 17.28 1.8 17.064 1.176 16.632C0.568 16.2 0.264 15.56 0.264 14.712C0.264 14.552 0.304 14.408 0.384 14.28C0.464 14.136 0.544 14.096 0.624 14.16C0.704 14.224 0.744 14.408 0.744 14.712C0.744 15.256 0.952 15.664 1.368 15.936C1.8 16.208 2.32 16.344 2.928 16.344C4.24 16.344 5.528 15.912 6.792 15.048C8.072 14.2 9.808 12.528 12 10.032C9.648 9.744 8.096 9.6 7.344 9.6C5.312 9.6 4.056 10.264 3.576 11.592C3.512 11.768 3.48 11.936 3.48 12.096C3.48 12.24 3.512 12.376 3.576 12.504C3.64 12.616 3.648 12.712 3.6 12.792C3.568 12.856 3.504 12.888 3.408 12.888C3.312 12.872 3.232 12.816 3.168 12.72C2.992 12.416 2.904 12.12 2.904 11.832C2.904 10.84 3.08 10.112 3.432 9.648C3.8 9.168 4.224 8.864 4.704 8.736C5.28 8.576 5.952 8.496 6.72 8.496C7.488 8.496 9.424 8.8 12.528 9.408C13.392 8.416 14.704 6.824 16.464 4.632C18.224 2.424 19.104 1.304 19.104 1.272H19.128C19.144 1.256 19.184 1.232 19.248 1.2C19.632 0.975999 20.048 0.863999 20.496 0.863999C20.656 0.863999 20.736 0.943999 20.736 1.104C20.736 1.12 20.728 1.144 20.712 1.176C20.696 1.192 20.68 1.224 20.664 1.272C20.648 1.304 20.632 1.336 20.616 1.368C19.08 3.912 17.888 6.776 17.04 9.96L16.968 10.128L17.568 10.152C17.696 10.168 17.92 10.176 18.24 10.176C18.576 10.176 18.928 10.104 19.296 9.96C19.664 9.8 19.896 9.632 19.992 9.456C20.104 9.28 20.2 9.24 20.28 9.336C20.36 9.432 20.368 9.536 20.304 9.648C20.128 9.968 19.816 10.2 19.368 10.344C18.984 10.504 18.6 10.584 18.216 10.584C17.848 10.584 17.608 10.584 17.496 10.584L16.848 10.56C16.544 11.952 16.392 13.064 16.392 13.896C16.392 14.712 16.616 15.12 17.064 15.12C17.496 15.12 18.168 14.776 19.08 14.088C19.992 13.4 20.848 12.512 21.648 11.424C21.696 11.36 21.76 11.344 21.84 11.376C21.92 11.408 21.96 11.448 21.96 11.496C21.96 11.544 21.944 11.608 21.912 11.688C21.896 11.752 21.776 11.928 21.552 12.216C20.88 13.112 20.056 13.96 19.08 14.76C18.376 15.32 17.592 15.6 16.728 15.6ZM18.048 3.528C18.064 3.496 18.08 3.456 18.096 3.408C18.128 3.344 18.152 3.296 18.168 3.264C16.168 6 14.56 8.112 13.344 9.6L15.864 10.008C16.312 8.264 17.04 6.104 18.048 3.528Z" fill="black"/>
</svg>
