<svg width="104" height="26" viewBox="0 0 104 26" fill="none" xmlns="http://www.w3.org/2000/svg">
<path d="M70.7344 19C70.6719 18.875 70.6211 18.6523 70.582 18.332C70.0781 18.8555 69.4766 19.1172 68.7773 19.1172C68.1523 19.1172 67.6387 18.9414 67.2363 18.5898C66.8379 18.2344 66.6387 17.7852 66.6387 17.2422C66.6387 16.582 66.8887 16.0703 67.3887 15.707C67.8926 15.3398 68.5996 15.1562 69.5098 15.1562H70.5645V14.6582C70.5645 14.2793 70.4512 13.9785 70.2246 13.7559C69.998 13.5293 69.6641 13.416 69.2227 13.416C68.8359 13.416 68.5117 13.5137 68.25 13.709C67.9883 13.9043 67.8574 14.1406 67.8574 14.418H66.7676C66.7676 14.1016 66.8789 13.7969 67.1016 13.5039C67.3281 13.207 67.6328 12.9727 68.0156 12.8008C68.4023 12.6289 68.8262 12.543 69.2871 12.543C70.0176 12.543 70.5898 12.7266 71.0039 13.0938C71.418 13.457 71.6328 13.959 71.6484 14.5996V17.5176C71.6484 18.0996 71.7227 18.5625 71.8711 18.9062V19H70.7344ZM68.9355 18.1738C69.2754 18.1738 69.5977 18.0859 69.9023 17.9102C70.207 17.7344 70.4277 17.5059 70.5645 17.2246V15.9238H69.7148C68.3867 15.9238 67.7227 16.3125 67.7227 17.0898C67.7227 17.4297 67.8359 17.6953 68.0625 17.8867C68.2891 18.0781 68.5801 18.1738 68.9355 18.1738ZM74.373 12.6602L74.4082 13.457C74.8926 12.8477 75.5254 12.543 76.3066 12.543C77.6465 12.543 78.3223 13.2988 78.334 14.8105V19H77.25V14.8047C77.2461 14.3477 77.1406 14.0098 76.9336 13.791C76.7305 13.5723 76.4121 13.4629 75.9785 13.4629C75.627 13.4629 75.3184 13.5566 75.0527 13.7441C74.7871 13.9316 74.5801 14.1777 74.4316 14.4824V19H73.3477V12.6602H74.373ZM82.5117 18.2324C82.8984 18.2324 83.2363 18.1152 83.5254 17.8809C83.8145 17.6465 83.9746 17.3535 84.0059 17.002H85.0312C85.0117 17.3652 84.8867 17.7109 84.6562 18.0391C84.4258 18.3672 84.1172 18.6289 83.7305 18.8242C83.3477 19.0195 82.9414 19.1172 82.5117 19.1172C81.6484 19.1172 80.9609 18.8301 80.4492 18.2559C79.9414 17.6777 79.6875 16.8887 79.6875 15.8887V15.707C79.6875 15.0898 79.8008 14.541 80.0273 14.0605C80.2539 13.5801 80.5781 13.207 81 12.9414C81.4258 12.6758 81.9277 12.543 82.5059 12.543C83.2168 12.543 83.8066 12.7559 84.2754 13.1816C84.748 13.6074 85 14.1602 85.0312 14.8398H84.0059C83.9746 14.4297 83.8184 14.0938 83.5371 13.832C83.2598 13.5664 82.916 13.4336 82.5059 13.4336C81.9551 13.4336 81.5273 13.6328 81.2227 14.0312C80.9219 14.4258 80.7715 14.998 80.7715 15.748V15.9531C80.7715 16.6836 80.9219 17.2461 81.2227 17.6406C81.5234 18.0352 81.9531 18.2324 82.5117 18.2324ZM87.334 13.4277C87.8145 12.8379 88.4395 12.543 89.209 12.543C90.5488 12.543 91.2246 13.2988 91.2363 14.8105V19H90.1523V14.8047C90.1484 14.3477 90.043 14.0098 89.8359 13.791C89.6328 13.5723 89.3145 13.4629 88.8809 13.4629C88.5293 13.4629 88.2207 13.5566 87.9551 13.7441C87.6895 13.9316 87.4824 14.1777 87.334 14.4824V19H86.25V10H87.334V13.4277ZM95.4902 19.1172C94.6309 19.1172 93.9316 18.8359 93.3926 18.2734C92.8535 17.707 92.584 16.9512 92.584 16.0059V15.8066C92.584 15.1777 92.7031 14.6172 92.9414 14.125C93.1836 13.6289 93.5195 13.2422 93.9492 12.9648C94.3828 12.6836 94.8516 12.543 95.3555 12.543C96.1797 12.543 96.8203 12.8145 97.2773 13.3574C97.7344 13.9004 97.9629 14.6777 97.9629 15.6895V16.1406H93.668C93.6836 16.7656 93.8652 17.2715 94.2129 17.6582C94.5645 18.041 95.0098 18.2324 95.5488 18.2324C95.9316 18.2324 96.2559 18.1543 96.5215 17.998C96.7871 17.8418 97.0195 17.6348 97.2188 17.377L97.8809 17.8926C97.3496 18.709 96.5527 19.1172 95.4902 19.1172ZM95.3555 13.4336C94.918 13.4336 94.5508 13.5938 94.2539 13.9141C93.957 14.2305 93.7734 14.6758 93.7031 15.25H96.8789V15.168C96.8477 14.6172 96.6992 14.1914 96.4336 13.8906C96.168 13.5859 95.8086 13.4336 95.3555 13.4336ZM100.242 18.1152H103.951V19H98.918V18.2031L102.416 13.5566H98.9707V12.6602H103.775V13.4277L100.242 18.1152Z" fill="black"/>
<path d="M60.2559 13.2959C58.8086 12.8799 57.7539 12.3701 57.0918 11.7666C56.4355 11.1572 56.1074 10.4072 56.1074 9.5166C56.1074 8.50879 56.5088 7.67676 57.3115 7.02051C58.1201 6.3584 59.1689 6.02734 60.458 6.02734C61.3369 6.02734 62.1191 6.19727 62.8047 6.53711C63.4961 6.87695 64.0293 7.3457 64.4043 7.94336C64.7852 8.54102 64.9756 9.19434 64.9756 9.90332H63.2793C63.2793 9.12988 63.0332 8.52344 62.541 8.08398C62.0488 7.63867 61.3545 7.41602 60.458 7.41602C59.626 7.41602 58.9756 7.60059 58.5068 7.96973C58.0439 8.33301 57.8125 8.83984 57.8125 9.49023C57.8125 10.0117 58.0322 10.4541 58.4717 10.8174C58.917 11.1748 59.6699 11.5029 60.7305 11.8018C61.7969 12.1006 62.6289 12.4316 63.2266 12.7949C63.8301 13.1523 64.2754 13.5713 64.5625 14.0518C64.8555 14.5322 65.002 15.0977 65.002 15.748C65.002 16.7852 64.5977 17.6172 63.7891 18.2441C62.9805 18.8652 61.8994 19.1758 60.5459 19.1758C59.667 19.1758 58.8467 19.0088 58.085 18.6748C57.3232 18.335 56.7344 17.8721 56.3184 17.2861C55.9082 16.7002 55.7031 16.0352 55.7031 15.291H57.3994C57.3994 16.0645 57.6836 16.6768 58.252 17.1279C58.8262 17.5732 59.5908 17.7959 60.5459 17.7959C61.4365 17.7959 62.1191 17.6143 62.5938 17.251C63.0684 16.8877 63.3057 16.3926 63.3057 15.7656C63.3057 15.1387 63.0859 14.6553 62.6465 14.3154C62.207 13.9697 61.4102 13.6299 60.2559 13.2959Z" fill="black"/>
<path d="M18.998 19H17.9141V10H18.998V19ZM26.1055 15.9004C26.1055 16.8691 25.8828 17.6484 25.4375 18.2383C24.9922 18.8242 24.3945 19.1172 23.6445 19.1172C22.8438 19.1172 22.2246 18.834 21.7871 18.2676L21.7344 19H20.7383V10H21.8223V13.3574C22.2598 12.8145 22.8633 12.543 23.6328 12.543C24.4023 12.543 25.0059 12.834 25.4434 13.416C25.8848 13.998 26.1055 14.7949 26.1055 15.8066V15.9004ZM25.0215 15.7773C25.0215 15.0391 24.8789 14.4688 24.5938 14.0664C24.3086 13.6641 23.8984 13.4629 23.3633 13.4629C22.6484 13.4629 22.1348 13.7949 21.8223 14.459V17.2012C22.1543 17.8652 22.6719 18.1973 23.375 18.1973C23.8945 18.1973 24.2988 17.9961 24.5879 17.5938C24.877 17.1914 25.0215 16.5859 25.0215 15.7773ZM30.1074 19.1172C29.248 19.1172 28.5488 18.8359 28.0098 18.2734C27.4707 17.707 27.2012 16.9512 27.2012 16.0059V15.8066C27.2012 15.1777 27.3203 14.6172 27.5586 14.125C27.8008 13.6289 28.1367 13.2422 28.5664 12.9648C29 12.6836 29.4688 12.543 29.9727 12.543C30.7969 12.543 31.4375 12.8145 31.8945 13.3574C32.3516 13.9004 32.5801 14.6777 32.5801 15.6895V16.1406H28.2852C28.3008 16.7656 28.4824 17.2715 28.8301 17.6582C29.1816 18.041 29.627 18.2324 30.166 18.2324C30.5488 18.2324 30.873 18.1543 31.1387 17.998C31.4043 17.8418 31.6367 17.6348 31.8359 17.377L32.498 17.8926C31.9668 18.709 31.1699 19.1172 30.1074 19.1172ZM29.9727 13.4336C29.5352 13.4336 29.168 13.5938 28.8711 13.9141C28.5742 14.2305 28.3906 14.6758 28.3203 15.25H31.4961V15.168C31.4648 14.6172 31.3164 14.1914 31.0508 13.8906C30.7852 13.5859 30.4258 13.4336 29.9727 13.4336ZM36.9043 13.6328C36.7402 13.6055 36.5625 13.5918 36.3711 13.5918C35.6602 13.5918 35.1777 13.8945 34.9238 14.5V19H33.8398V12.6602H34.8945L34.9121 13.3926C35.2676 12.8262 35.7715 12.543 36.4238 12.543C36.6348 12.543 36.7949 12.5703 36.9043 12.625V13.6328ZM39.6699 11.125V12.6602H40.8535V13.498H39.6699V17.4297C39.6699 17.6836 39.7227 17.875 39.8281 18.0039C39.9336 18.1289 40.1133 18.1914 40.3672 18.1914C40.4922 18.1914 40.6641 18.168 40.8828 18.1211V19C40.5977 19.0781 40.3203 19.1172 40.0508 19.1172C39.5664 19.1172 39.2012 18.9707 38.9551 18.6777C38.709 18.3848 38.5859 17.9688 38.5859 17.4297V13.498H37.4316V12.6602H38.5859V11.125H39.6699ZM41.7207 15.7715C41.7207 15.1504 41.8418 14.5918 42.084 14.0957C42.3301 13.5996 42.6699 13.2168 43.1035 12.9473C43.541 12.6777 44.0391 12.543 44.5977 12.543C45.4609 12.543 46.1582 12.8418 46.6895 13.4395C47.2246 14.0371 47.4922 14.832 47.4922 15.8242V15.9004C47.4922 16.5176 47.373 17.0723 47.1348 17.5645C46.9004 18.0527 46.5625 18.4336 46.1211 18.707C45.6836 18.9805 45.1797 19.1172 44.6094 19.1172C43.75 19.1172 43.0527 18.8184 42.5176 18.2207C41.9863 17.623 41.7207 16.832 41.7207 15.8477V15.7715ZM42.8105 15.9004C42.8105 16.6035 42.9727 17.168 43.2969 17.5938C43.625 18.0195 44.0625 18.2324 44.6094 18.2324C45.1602 18.2324 45.5977 18.0176 45.9219 17.5879C46.2461 17.1543 46.4082 16.5488 46.4082 15.7715C46.4082 15.0762 46.2422 14.5137 45.9102 14.084C45.582 13.6504 45.1445 13.4336 44.5977 13.4336C44.0625 13.4336 43.6309 13.6465 43.3027 14.0723C42.9746 14.498 42.8105 15.1074 42.8105 15.9004Z" fill="black"/>
<path d="M13.5518 15.6602H8.19043L6.98633 19H5.24609L10.1328 6.20312H11.6094L16.5049 19H14.7734L13.5518 15.6602ZM8.7002 14.2715H13.0508L10.8711 8.28613L8.7002 14.2715Z" fill="black"/>
</svg>
