<svg width="984" height="250" viewBox="0 0 984 250" fill="none" xmlns="http://www.w3.org/2000/svg">
<mask id="path-1-outside-1" maskUnits="userSpaceOnUse" x="0.00714111" y="0.671997" width="984" height="250" fill="black">
<rect fill="white" x="0.00714111" y="0.671997" width="984" height="250"/>
<path d="M50.3591 76L44.5031 57.952H19.5431L13.7831 76H6.00714L27.1271 9.952H37.2071L58.3271 76H50.3591ZM32.3111 18.4H31.8311L21.4631 51.136H42.4871L32.3111 18.4Z"/>
<path d="M67.8094 76V4.672H75.1054V76H67.8094Z"/>
<path d="M111.063 76.768C107.543 76.768 104.567 76.256 102.135 75.232C99.7674 74.144 98.0394 72.128 96.9514 69.184H96.4714L96.0874 76H89.5594V4.672H96.8554V33.088H97.3354C98.4234 30.656 100.087 28.928 102.327 27.904C104.631 26.816 107.575 26.272 111.159 26.272C115.511 26.272 118.807 27.008 121.047 28.48C123.287 29.952 124.855 32.448 125.751 35.968C126.647 39.488 127.095 44.672 127.095 51.52C127.095 58.368 126.615 63.584 125.655 67.168C124.759 70.688 123.191 73.184 120.951 74.656C118.711 76.064 115.415 76.768 111.063 76.768ZM108.279 70.144C111.863 70.144 114.391 69.76 115.863 68.992C117.399 68.16 118.423 66.496 118.935 64C119.511 61.504 119.799 57.344 119.799 51.52C119.799 45.696 119.511 41.568 118.935 39.136C118.423 36.64 117.399 34.976 115.863 34.144C114.391 33.312 111.863 32.896 108.279 32.896C105.527 32.896 103.319 33.312 101.655 34.144C100.055 34.976 98.9354 36.288 98.2954 38.08C97.7194 39.616 97.3354 41.44 97.1434 43.552C96.9514 45.6 96.8554 48.256 96.8554 51.52C96.8554 54.656 96.9514 57.248 97.1434 59.296C97.3354 61.344 97.6874 63.136 98.1994 64.672C98.8394 66.592 99.9594 68 101.559 68.896C103.223 69.728 105.463 70.144 108.279 70.144Z"/>
<path d="M174.753 54.016H145.377C145.377 59.008 145.633 62.592 146.145 64.768C146.721 66.944 147.937 68.448 149.793 69.28C151.713 70.112 154.849 70.528 159.201 70.528C163.297 70.528 167.937 70.176 173.121 69.472V75.424C171.393 75.808 169.057 76.128 166.113 76.384C163.233 76.64 160.417 76.768 157.665 76.768C151.777 76.768 147.457 76.032 144.705 74.56C141.953 73.024 140.129 70.56 139.233 67.168C138.401 63.776 137.985 58.592 137.985 51.616C137.985 44.704 138.369 39.584 139.137 36.256C139.905 32.864 141.633 30.368 144.321 28.768C147.073 27.104 151.393 26.272 157.281 26.272C162.785 26.272 166.753 27.072 169.185 28.672C171.617 30.208 173.153 32.64 173.793 35.968C174.433 39.232 174.753 44.416 174.753 51.52V54.016ZM157.089 32.512C153.441 32.512 150.817 32.896 149.217 33.664C147.681 34.432 146.657 35.904 146.145 38.08C145.633 40.192 145.377 43.68 145.377 48.544H167.745V47.584C167.745 43.04 167.425 39.744 166.785 37.696C166.209 35.584 165.185 34.208 163.713 33.568C162.305 32.864 160.097 32.512 157.089 32.512Z"/>
<path d="M187.434 27.04H193.962L194.346 36.352H194.922C195.882 32.512 197.546 29.888 199.914 28.48C202.346 27.008 205.514 26.272 209.418 26.272V33.664C205.578 33.664 202.57 34.368 200.394 35.776C198.282 37.12 196.81 39.2 195.978 42.016C195.146 44.768 194.73 48.448 194.73 53.056V76H187.434V27.04Z"/>
<path d="M222.861 76V33.376H214.317V27.04H222.861V12.832H230.157V27.04H240.237V33.376H230.157V76H222.861Z"/>
<path d="M266.589 76.768C260.573 76.768 256.253 76.096 253.629 74.752C251.005 73.344 249.309 71.008 248.541 67.744C247.837 64.416 247.485 59.008 247.485 51.52C247.485 44.032 247.837 38.656 248.541 35.392C249.309 32.064 251.005 29.728 253.629 28.384C256.253 26.976 260.573 26.272 266.589 26.272C272.605 26.272 276.925 26.976 279.549 28.384C282.173 29.728 283.837 32.064 284.541 35.392C285.309 38.656 285.693 44.032 285.693 51.52C285.693 59.008 285.309 64.416 284.541 67.744C283.837 71.008 282.173 73.344 279.549 74.752C276.925 76.096 272.605 76.768 266.589 76.768ZM266.589 70.432C270.557 70.432 273.309 70.016 274.845 69.184C276.445 68.288 277.437 66.688 277.821 64.384C278.205 62.016 278.397 57.728 278.397 51.52C278.397 45.312 278.205 41.056 277.821 38.752C277.437 36.384 276.445 34.784 274.845 33.952C273.309 33.056 270.557 32.608 266.589 32.608C262.621 32.608 259.869 33.056 258.333 33.952C256.797 34.784 255.837 36.384 255.453 38.752C255.069 41.056 254.877 45.312 254.877 51.52C254.877 57.792 255.069 62.08 255.453 64.384C255.837 66.688 256.797 68.288 258.333 69.184C259.869 70.016 262.621 70.432 266.589 70.432Z"/>
<path d="M319.647 76V9.952H327.327V68.992H353.439V76H319.647Z"/>
<path d="M397.785 54.016H368.409C368.409 59.008 368.665 62.592 369.177 64.768C369.753 66.944 370.969 68.448 372.825 69.28C374.745 70.112 377.881 70.528 382.233 70.528C386.329 70.528 390.969 70.176 396.153 69.472V75.424C394.425 75.808 392.089 76.128 389.145 76.384C386.265 76.64 383.449 76.768 380.697 76.768C374.809 76.768 370.489 76.032 367.737 74.56C364.985 73.024 363.161 70.56 362.265 67.168C361.433 63.776 361.017 58.592 361.017 51.616C361.017 44.704 361.401 39.584 362.169 36.256C362.937 32.864 364.665 30.368 367.353 28.768C370.105 27.104 374.425 26.272 380.313 26.272C385.817 26.272 389.785 27.072 392.217 28.672C394.649 30.208 396.185 32.64 396.825 35.968C397.465 39.232 397.785 44.416 397.785 51.52V54.016ZM380.121 32.512C376.473 32.512 373.849 32.896 372.249 33.664C370.713 34.432 369.689 35.904 369.177 38.08C368.665 40.192 368.409 43.68 368.409 48.544H390.777V47.584C390.777 43.04 390.457 39.744 389.817 37.696C389.241 35.584 388.217 34.208 386.745 33.568C385.337 32.864 383.129 32.512 380.121 32.512Z"/>
<path d="M422.082 76.768C416.962 76.768 413.282 75.744 411.042 73.696C408.802 71.584 407.682 67.84 407.682 62.464C407.682 58.752 408.066 55.872 408.834 53.824C409.666 51.712 411.042 50.208 412.962 49.312C414.946 48.352 417.698 47.872 421.218 47.872C423.01 47.872 428.226 48.032 436.866 48.352V45.088C436.866 41.12 436.546 38.304 435.906 36.64C435.266 34.912 434.082 33.824 432.354 33.376C430.69 32.864 427.842 32.608 423.81 32.608C422.018 32.608 419.746 32.704 416.994 32.896C414.306 33.088 412.13 33.312 410.466 33.568V27.616C414.946 26.72 420.162 26.272 426.114 26.272C431.234 26.272 435.042 26.848 437.538 28C440.098 29.088 441.826 30.944 442.722 33.568C443.682 36.192 444.162 40.032 444.162 45.088V76H437.634L437.25 69.184H436.77C435.618 72.256 433.73 74.304 431.106 75.328C428.546 76.288 425.538 76.768 422.082 76.768ZM424.674 70.432C427.362 70.432 429.538 70.176 431.202 69.664C432.93 69.088 434.21 67.968 435.042 66.304C436.258 63.808 436.866 60.448 436.866 56.224V53.44H423.138C420.77 53.44 419.01 53.664 417.858 54.112C416.77 54.496 416.002 55.296 415.554 56.512C415.106 57.664 414.882 59.488 414.882 61.984C414.882 64.416 415.138 66.208 415.65 67.36C416.162 68.512 417.09 69.312 418.434 69.76C419.778 70.208 421.858 70.432 424.674 70.432Z"/>
<path d="M487.554 47.776C487.554 43.104 487.298 39.808 486.786 37.888C486.338 35.904 485.41 34.592 484.002 33.952C482.658 33.312 480.386 32.992 477.186 32.992C473.666 32.992 471.074 33.664 469.41 35.008C467.81 36.288 466.786 38.112 466.338 40.48C465.954 42.848 465.762 46.208 465.762 50.56V76H458.466V27.04H464.994L465.378 33.952H465.858C466.818 31.456 468.386 29.568 470.562 28.288C472.802 26.944 476.002 26.272 480.162 26.272C484.322 26.272 487.426 26.912 489.474 28.192C491.586 29.472 492.994 31.424 493.698 34.048C494.466 36.672 494.85 40.352 494.85 45.088V76H487.554V47.776Z"/>
<path d="M523.582 76.768C519.23 76.768 515.902 76.064 513.598 74.656C511.358 73.184 509.758 70.688 508.798 67.168C507.902 63.648 507.454 58.464 507.454 51.616C507.454 44.768 507.902 39.584 508.798 36.064C509.694 32.48 511.262 29.952 513.502 28.48C515.742 27.008 519.038 26.272 523.39 26.272C526.974 26.272 529.886 26.816 532.126 27.904C534.43 28.928 536.126 30.656 537.214 33.088H537.694V4.672H544.99V76H538.462L538.174 69.184H537.598C536.51 72.128 534.75 74.144 532.318 75.232C529.95 76.256 527.038 76.768 523.582 76.768ZM526.366 70.144C529.182 70.144 531.39 69.728 532.99 68.896C534.654 68 535.806 66.592 536.446 64.672C536.958 63.072 537.278 61.28 537.406 59.296C537.598 57.248 537.694 54.432 537.694 50.848C537.694 48.096 537.63 45.856 537.502 44.128C537.374 42.336 537.118 40.768 536.734 39.424C536.094 37.12 534.942 35.456 533.278 34.432C531.614 33.408 529.246 32.896 526.174 32.896C522.654 32.896 520.126 33.312 518.59 34.144C517.118 34.976 516.126 36.64 515.614 39.136C515.102 41.568 514.846 45.696 514.846 51.52C514.846 57.344 515.102 61.504 515.614 64C516.126 66.496 517.15 68.16 518.686 68.992C520.222 69.76 522.782 70.144 526.366 70.144Z"/>
<path d="M559.528 27.04H566.056L566.44 36.352H567.016C567.976 32.512 569.64 29.888 572.008 28.48C574.44 27.008 577.608 26.272 581.512 26.272V33.664C577.672 33.664 574.664 34.368 572.488 35.776C570.376 37.12 568.904 39.2 568.072 42.016C567.24 44.768 566.824 48.448 566.824 53.056V76H559.528V27.04Z"/>
<path d="M607.746 76.768C601.73 76.768 597.41 76.096 594.786 74.752C592.162 73.344 590.466 71.008 589.698 67.744C588.994 64.416 588.642 59.008 588.642 51.52C588.642 44.032 588.994 38.656 589.698 35.392C590.466 32.064 592.162 29.728 594.786 28.384C597.41 26.976 601.73 26.272 607.746 26.272C613.762 26.272 618.082 26.976 620.706 28.384C623.33 29.728 624.994 32.064 625.698 35.392C626.466 38.656 626.85 44.032 626.85 51.52C626.85 59.008 626.466 64.416 625.698 67.744C624.994 71.008 623.33 73.344 620.706 74.752C618.082 76.096 613.762 76.768 607.746 76.768ZM607.746 70.432C611.714 70.432 614.466 70.016 616.002 69.184C617.602 68.288 618.594 66.688 618.978 64.384C619.362 62.016 619.554 57.728 619.554 51.52C619.554 45.312 619.362 41.056 618.978 38.752C618.594 36.384 617.602 34.784 616.002 33.952C614.466 33.056 611.714 32.608 607.746 32.608C603.778 32.608 601.026 33.056 599.49 33.952C597.954 34.784 596.994 36.384 596.61 38.752C596.226 41.056 596.034 45.312 596.034 51.52C596.034 57.792 596.226 62.08 596.61 64.384C596.994 66.688 597.954 68.288 599.49 69.184C601.026 70.016 603.778 70.432 607.746 70.432Z"/>
<path d="M679.331 76.768C676.003 76.768 672.515 76.64 668.867 76.384C665.283 76.192 662.147 75.872 659.459 75.424V68.896C666.243 69.6 672.099 69.952 677.027 69.952C680.099 69.952 682.499 69.792 684.227 69.472C686.019 69.152 687.491 68.576 688.643 67.744C689.795 66.976 690.531 65.824 690.851 64.288C691.171 62.688 691.331 60.544 691.331 57.856C691.331 54.464 691.171 52.096 690.851 50.752C690.531 49.408 689.795 48.448 688.643 47.872C687.555 47.296 685.571 46.816 682.691 46.432L669.155 44.704C665.891 44.256 663.427 43.328 661.763 41.92C660.163 40.512 659.107 38.688 658.595 36.448C658.083 34.208 657.827 31.264 657.827 27.616C657.827 22.688 658.595 18.912 660.131 16.288C661.667 13.6 663.907 11.744 666.851 10.72C669.859 9.696 673.795 9.184 678.659 9.184C681.987 9.184 685.219 9.34399 688.355 9.66399C691.555 9.91999 694.179 10.272 696.227 10.72V17.056C691.491 16.352 686.211 16 680.387 16C677.123 16 674.531 16.192 672.611 16.576C670.691 16.96 669.219 17.568 668.195 18.4C667.107 19.232 666.371 20.352 665.987 21.76C665.667 23.104 665.507 24.992 665.507 27.424C665.507 30.24 665.667 32.288 665.987 33.568C666.307 34.848 666.947 35.776 667.907 36.352C668.867 36.864 670.435 37.248 672.611 37.504L685.859 39.232C689.315 39.68 691.939 40.384 693.731 41.344C695.587 42.24 696.963 43.904 697.859 46.336C698.691 48.384 699.107 51.968 699.107 57.088C699.107 62.528 698.371 66.688 696.899 69.568C695.427 72.384 693.283 74.304 690.467 75.328C687.715 76.288 684.003 76.768 679.331 76.768Z"/>
<path d="M723.207 76.768C718.087 76.768 714.407 75.744 712.167 73.696C709.927 71.584 708.807 67.84 708.807 62.464C708.807 58.752 709.191 55.872 709.959 53.824C710.791 51.712 712.167 50.208 714.087 49.312C716.071 48.352 718.823 47.872 722.343 47.872C724.135 47.872 729.351 48.032 737.991 48.352V45.088C737.991 41.12 737.671 38.304 737.031 36.64C736.391 34.912 735.207 33.824 733.479 33.376C731.815 32.864 728.967 32.608 724.935 32.608C723.143 32.608 720.871 32.704 718.119 32.896C715.431 33.088 713.255 33.312 711.591 33.568V27.616C716.071 26.72 721.287 26.272 727.239 26.272C732.359 26.272 736.167 26.848 738.663 28C741.223 29.088 742.951 30.944 743.847 33.568C744.807 36.192 745.287 40.032 745.287 45.088V76H738.759L738.375 69.184H737.895C736.743 72.256 734.855 74.304 732.231 75.328C729.671 76.288 726.663 76.768 723.207 76.768ZM725.799 70.432C728.487 70.432 730.663 70.176 732.327 69.664C734.055 69.088 735.335 67.968 736.167 66.304C737.383 63.808 737.991 60.448 737.991 56.224V53.44H724.263C721.895 53.44 720.135 53.664 718.983 54.112C717.895 54.496 717.127 55.296 716.679 56.512C716.231 57.664 716.007 59.488 716.007 61.984C716.007 64.416 716.263 66.208 716.775 67.36C717.287 68.512 718.215 69.312 719.559 69.76C720.903 70.208 722.983 70.432 725.799 70.432Z"/>
<path d="M788.679 47.776C788.679 43.104 788.423 39.808 787.911 37.888C787.463 35.904 786.535 34.592 785.127 33.952C783.783 33.312 781.511 32.992 778.311 32.992C774.791 32.992 772.199 33.664 770.535 35.008C768.935 36.288 767.911 38.112 767.463 40.48C767.079 42.848 766.887 46.208 766.887 50.56V76H759.591V27.04H766.119L766.503 33.952H766.983C767.943 31.456 769.511 29.568 771.687 28.288C773.927 26.944 777.127 26.272 781.287 26.272C785.447 26.272 788.551 26.912 790.599 28.192C792.711 29.472 794.119 31.424 794.823 34.048C795.591 36.672 795.975 40.352 795.975 45.088V76H788.679V47.776Z"/>
<path d="M838.243 75.52C836.707 75.84 834.819 76.128 832.579 76.384C830.403 76.64 828.355 76.768 826.435 76.768C821.059 76.768 817.091 75.936 814.531 74.272C812.035 72.544 810.403 69.984 809.635 66.592C808.931 63.2 808.579 58.176 808.579 51.52C808.579 44.864 809.027 39.808 809.923 36.352C810.819 32.832 812.515 30.272 815.011 28.672C817.507 27.072 821.219 26.272 826.147 26.272C828.131 26.272 830.211 26.4 832.387 26.656C834.563 26.912 836.387 27.2 837.859 27.52V33.568C834.659 32.928 831.331 32.608 827.875 32.608C824.291 32.608 821.667 33.088 820.003 34.048C818.403 35.008 817.315 36.768 816.739 39.328C816.227 41.888 815.971 45.952 815.971 51.52C815.971 57.216 816.259 61.344 816.835 63.904C817.411 66.4 818.499 68.128 820.099 69.088C821.763 69.984 824.419 70.432 828.067 70.432C831.523 70.432 834.915 70.112 838.243 69.472V75.52Z"/>
<path d="M878.491 47.776C878.491 43.104 878.235 39.808 877.723 37.888C877.275 35.904 876.347 34.592 874.939 33.952C873.595 33.312 871.323 32.992 868.123 32.992C864.603 32.992 862.011 33.664 860.347 35.008C858.747 36.288 857.723 38.112 857.275 40.48C856.891 42.848 856.699 46.208 856.699 50.56V76H849.403V4.672H856.699V33.28H857.179C858.139 31.104 859.675 29.408 861.787 28.192C863.963 26.912 867.067 26.272 871.099 26.272C875.259 26.272 878.363 26.912 880.411 28.192C882.523 29.472 883.931 31.424 884.635 34.048C885.403 36.608 885.787 40.256 885.787 44.992V76H878.491V47.776Z"/>
<path d="M935.16 54.016H905.784C905.784 59.008 906.04 62.592 906.552 64.768C907.128 66.944 908.344 68.448 910.2 69.28C912.12 70.112 915.256 70.528 919.608 70.528C923.704 70.528 928.344 70.176 933.528 69.472V75.424C931.8 75.808 929.464 76.128 926.52 76.384C923.64 76.64 920.824 76.768 918.072 76.768C912.184 76.768 907.864 76.032 905.112 74.56C902.36 73.024 900.536 70.56 899.64 67.168C898.808 63.776 898.392 58.592 898.392 51.616C898.392 44.704 898.776 39.584 899.544 36.256C900.312 32.864 902.04 30.368 904.728 28.768C907.48 27.104 911.8 26.272 917.688 26.272C923.192 26.272 927.16 27.072 929.592 28.672C932.024 30.208 933.56 32.64 934.2 35.968C934.84 39.232 935.16 44.416 935.16 51.52V54.016ZM917.496 32.512C913.848 32.512 911.224 32.896 909.624 33.664C908.088 34.432 907.064 35.904 906.552 38.08C906.04 40.192 905.784 43.68 905.784 48.544H928.152V47.584C928.152 43.04 927.832 39.744 927.192 37.696C926.616 35.584 925.592 34.208 924.12 33.568C922.712 32.864 920.504 32.512 917.496 32.512Z"/>
<path d="M944.865 76V70.24L969.729 33.376H945.825V27.04H978.849V32.8L953.985 69.664H979.041V76H944.865Z"/>
<path d="M75.2873 227V160.952H110.615V167.768H82.9673V191.672H107.639V198.488H82.9673V227H75.2873Z"/>
<path d="M121.013 178.04H127.541L127.925 187.352H128.501C129.461 183.512 131.125 180.888 133.493 179.48C135.925 178.008 139.093 177.272 142.997 177.272V184.664C139.157 184.664 136.149 185.368 133.973 186.776C131.861 188.12 130.389 190.2 129.557 193.016C128.725 195.768 128.309 199.448 128.309 204.056V227H121.013V178.04Z"/>
<path d="M169.23 227.768C163.214 227.768 158.894 227.096 156.27 225.752C153.646 224.344 151.95 222.008 151.182 218.744C150.478 215.416 150.126 210.008 150.126 202.52C150.126 195.032 150.478 189.656 151.182 186.392C151.95 183.064 153.646 180.728 156.27 179.384C158.894 177.976 163.214 177.272 169.23 177.272C175.246 177.272 179.566 177.976 182.19 179.384C184.814 180.728 186.478 183.064 187.182 186.392C187.95 189.656 188.334 195.032 188.334 202.52C188.334 210.008 187.95 215.416 187.182 218.744C186.478 222.008 184.814 224.344 182.19 225.752C179.566 227.096 175.246 227.768 169.23 227.768ZM169.23 221.432C173.198 221.432 175.95 221.016 177.486 220.184C179.086 219.288 180.078 217.688 180.462 215.384C180.846 213.016 181.038 208.728 181.038 202.52C181.038 196.312 180.846 192.056 180.462 189.752C180.078 187.384 179.086 185.784 177.486 184.952C175.95 184.056 173.198 183.608 169.23 183.608C165.262 183.608 162.51 184.056 160.974 184.952C159.438 185.784 158.478 187.384 158.094 189.752C157.71 192.056 157.518 196.312 157.518 202.52C157.518 208.792 157.71 213.08 158.094 215.384C158.478 217.688 159.438 219.288 160.974 220.184C162.51 221.016 165.262 221.432 169.23 221.432Z"/>
<path d="M229.976 198.776C229.976 194.104 229.72 190.808 229.208 188.888C228.76 186.904 227.832 185.592 226.424 184.952C225.08 184.312 222.808 183.992 219.608 183.992C216.088 183.992 213.496 184.664 211.832 186.008C210.232 187.288 209.208 189.112 208.76 191.48C208.376 193.848 208.184 197.208 208.184 201.56V227H200.888V178.04H207.416L207.8 184.952H208.28C209.24 182.456 210.808 180.568 212.984 179.288C215.224 177.944 218.424 177.272 222.584 177.272C226.744 177.272 229.848 177.912 231.896 179.192C234.008 180.472 235.416 182.424 236.12 185.048C236.888 187.672 237.272 191.352 237.272 196.088V227H229.976V198.776Z"/>
<path d="M255.252 227V184.376H246.708V178.04H255.252V163.832H262.548V178.04H272.628V184.376H262.548V227H255.252Z"/>
<path d="M316.644 205.016H287.268C287.268 210.008 287.524 213.592 288.036 215.768C288.612 217.944 289.828 219.448 291.684 220.28C293.604 221.112 296.74 221.528 301.092 221.528C305.188 221.528 309.828 221.176 315.012 220.472V226.424C313.284 226.808 310.948 227.128 308.004 227.384C305.124 227.64 302.308 227.768 299.556 227.768C293.668 227.768 289.348 227.032 286.596 225.56C283.844 224.024 282.02 221.56 281.124 218.168C280.292 214.776 279.876 209.592 279.876 202.616C279.876 195.704 280.26 190.584 281.028 187.256C281.796 183.864 283.524 181.368 286.212 179.768C288.964 178.104 293.284 177.272 299.172 177.272C304.676 177.272 308.644 178.072 311.076 179.672C313.508 181.208 315.044 183.64 315.684 186.968C316.324 190.232 316.644 195.416 316.644 202.52V205.016ZM298.98 183.512C295.332 183.512 292.708 183.896 291.108 184.664C289.572 185.432 288.548 186.904 288.036 189.08C287.524 191.192 287.268 194.68 287.268 199.544H309.636V198.584C309.636 194.04 309.316 190.744 308.676 188.696C308.1 186.584 307.076 185.208 305.604 184.568C304.196 183.864 301.988 183.512 298.98 183.512Z"/>
<path d="M358.413 198.776C358.413 194.104 358.157 190.808 357.645 188.888C357.197 186.904 356.269 185.592 354.861 184.952C353.517 184.312 351.245 183.992 348.045 183.992C344.525 183.992 341.933 184.664 340.269 186.008C338.669 187.288 337.645 189.112 337.197 191.48C336.813 193.848 336.621 197.208 336.621 201.56V227H329.325V178.04H335.853L336.237 184.952H336.717C337.677 182.456 339.245 180.568 341.421 179.288C343.661 177.944 346.861 177.272 351.021 177.272C355.181 177.272 358.285 177.912 360.333 179.192C362.445 180.472 363.853 182.424 364.557 185.048C365.325 187.672 365.709 191.352 365.709 196.088V227H358.413V198.776Z"/>
<path d="M394.442 227.768C390.09 227.768 386.762 227.064 384.458 225.656C382.218 224.184 380.618 221.688 379.658 218.168C378.762 214.648 378.314 209.464 378.314 202.616C378.314 195.768 378.762 190.584 379.658 187.064C380.554 183.48 382.122 180.952 384.362 179.48C386.602 178.008 389.898 177.272 394.25 177.272C397.834 177.272 400.746 177.816 402.986 178.904C405.29 179.928 406.986 181.656 408.074 184.088H408.554V155.672H415.849V227H409.322L409.034 220.184H408.458C407.37 223.128 405.609 225.144 403.177 226.232C400.809 227.256 397.898 227.768 394.442 227.768ZM397.226 221.144C400.042 221.144 402.249 220.728 403.849 219.896C405.513 219 406.666 217.592 407.306 215.672C407.818 214.072 408.138 212.28 408.266 210.296C408.458 208.248 408.554 205.432 408.554 201.848C408.554 199.096 408.49 196.856 408.362 195.128C408.234 193.336 407.978 191.768 407.594 190.424C406.954 188.12 405.802 186.456 404.138 185.432C402.474 184.408 400.106 183.896 397.034 183.896C393.514 183.896 390.986 184.312 389.45 185.144C387.978 185.976 386.986 187.64 386.474 190.136C385.962 192.568 385.706 196.696 385.706 202.52C385.706 208.344 385.962 212.504 386.474 215C386.986 217.496 388.01 219.16 389.546 219.992C391.082 220.76 393.642 221.144 397.226 221.144Z"/>
<path d="M465.035 227.768C460.683 227.768 457.355 227.064 455.051 225.656C452.811 224.184 451.211 221.688 450.251 218.168C449.355 214.648 448.907 209.464 448.907 202.616C448.907 195.768 449.355 190.584 450.251 187.064C451.147 183.48 452.715 180.952 454.955 179.48C457.195 178.008 460.491 177.272 464.843 177.272C468.427 177.272 471.339 177.816 473.579 178.904C475.883 179.928 477.579 181.656 478.667 184.088H479.147V155.672H486.443V227H479.915L479.627 220.184H479.051C477.963 223.128 476.203 225.144 473.771 226.232C471.403 227.256 468.491 227.768 465.035 227.768ZM467.819 221.144C470.635 221.144 472.843 220.728 474.443 219.896C476.107 219 477.259 217.592 477.899 215.672C478.411 214.072 478.731 212.28 478.859 210.296C479.051 208.248 479.147 205.432 479.147 201.848C479.147 199.096 479.083 196.856 478.955 195.128C478.827 193.336 478.571 191.768 478.187 190.424C477.547 188.12 476.395 186.456 474.731 185.432C473.067 184.408 470.699 183.896 467.627 183.896C464.107 183.896 461.579 184.312 460.043 185.144C458.571 185.976 457.579 187.64 457.067 190.136C456.555 192.568 456.299 196.696 456.299 202.52C456.299 208.344 456.555 212.504 457.067 215C457.579 217.496 458.603 219.16 460.139 219.992C461.675 220.76 464.235 221.144 467.819 221.144Z"/>
<path d="M535.925 205.016H506.549C506.549 210.008 506.805 213.592 507.317 215.768C507.893 217.944 509.109 219.448 510.965 220.28C512.885 221.112 516.021 221.528 520.373 221.528C524.469 221.528 529.109 221.176 534.293 220.472V226.424C532.565 226.808 530.229 227.128 527.285 227.384C524.405 227.64 521.589 227.768 518.837 227.768C512.949 227.768 508.629 227.032 505.877 225.56C503.125 224.024 501.301 221.56 500.405 218.168C499.573 214.776 499.157 209.592 499.157 202.616C499.157 195.704 499.541 190.584 500.309 187.256C501.077 183.864 502.805 181.368 505.493 179.768C508.245 178.104 512.565 177.272 518.453 177.272C523.957 177.272 527.925 178.072 530.357 179.672C532.789 181.208 534.325 183.64 534.965 186.968C535.605 190.232 535.925 195.416 535.925 202.52V205.016ZM518.261 183.512C514.613 183.512 511.989 183.896 510.389 184.664C508.853 185.432 507.829 186.904 507.317 189.08C506.805 191.192 506.549 194.68 506.549 199.544H528.917V198.584C528.917 194.04 528.597 190.744 527.957 188.696C527.381 186.584 526.357 185.208 524.885 184.568C523.477 183.864 521.269 183.512 518.261 183.512Z"/>
<path d="M558.421 227L542.677 178.04H550.357L562.741 218.648H563.413L575.797 178.04H583.285L567.637 227H558.421Z"/>
<path d="M626.769 205.016H597.393C597.393 210.008 597.649 213.592 598.161 215.768C598.737 217.944 599.953 219.448 601.809 220.28C603.729 221.112 606.865 221.528 611.217 221.528C615.313 221.528 619.953 221.176 625.137 220.472V226.424C623.409 226.808 621.073 227.128 618.129 227.384C615.249 227.64 612.433 227.768 609.681 227.768C603.793 227.768 599.473 227.032 596.721 225.56C593.969 224.024 592.145 221.56 591.249 218.168C590.417 214.776 590.001 209.592 590.001 202.616C590.001 195.704 590.385 190.584 591.153 187.256C591.921 183.864 593.649 181.368 596.337 179.768C599.089 178.104 603.409 177.272 609.297 177.272C614.801 177.272 618.769 178.072 621.201 179.672C623.633 181.208 625.169 183.64 625.809 186.968C626.449 190.232 626.769 195.416 626.769 202.52V205.016ZM609.105 183.512C605.457 183.512 602.833 183.896 601.233 184.664C599.697 185.432 598.673 186.904 598.161 189.08C597.649 191.192 597.393 194.68 597.393 199.544H619.761V198.584C619.761 194.04 619.441 190.744 618.801 188.696C618.225 186.584 617.201 185.208 615.729 184.568C614.321 183.864 612.113 183.512 609.105 183.512Z"/>
<path d="M639.45 227V155.672H646.746V227H639.45Z"/>
<path d="M678.48 227.768C672.464 227.768 668.144 227.096 665.52 225.752C662.896 224.344 661.2 222.008 660.432 218.744C659.728 215.416 659.376 210.008 659.376 202.52C659.376 195.032 659.728 189.656 660.432 186.392C661.2 183.064 662.896 180.728 665.52 179.384C668.144 177.976 672.464 177.272 678.48 177.272C684.496 177.272 688.816 177.976 691.44 179.384C694.064 180.728 695.728 183.064 696.432 186.392C697.2 189.656 697.584 195.032 697.584 202.52C697.584 210.008 697.2 215.416 696.432 218.744C695.728 222.008 694.064 224.344 691.44 225.752C688.816 227.096 684.496 227.768 678.48 227.768ZM678.48 221.432C682.448 221.432 685.2 221.016 686.736 220.184C688.336 219.288 689.328 217.688 689.712 215.384C690.096 213.016 690.288 208.728 690.288 202.52C690.288 196.312 690.096 192.056 689.712 189.752C689.328 187.384 688.336 185.784 686.736 184.952C685.2 184.056 682.448 183.608 678.48 183.608C674.512 183.608 671.76 184.056 670.224 184.952C668.688 185.784 667.728 187.384 667.344 189.752C666.96 192.056 666.768 196.312 666.768 202.52C666.768 208.792 666.96 213.08 667.344 215.384C667.728 217.688 668.688 219.288 670.224 220.184C671.76 221.016 674.512 221.432 678.48 221.432Z"/>
<path d="M710.138 178.04H716.666L717.049 184.952H717.529C718.617 181.944 720.378 179.928 722.81 178.904C725.242 177.816 728.185 177.272 731.641 177.272C735.993 177.272 739.289 178.008 741.529 179.48C743.769 180.888 745.338 183.352 746.234 186.872C747.194 190.392 747.674 195.576 747.674 202.424C747.674 209.272 747.226 214.488 746.33 218.072C745.434 221.592 743.865 224.088 741.625 225.56C739.385 227.032 736.089 227.768 731.737 227.768C728.089 227.768 725.146 227.256 722.906 226.232C720.666 225.144 719.034 223.352 718.01 220.856H717.433V245.816H710.138V178.04ZM728.857 221.144C732.441 221.144 734.97 220.728 736.442 219.896C737.978 219.064 739.001 217.432 739.513 215C740.089 212.504 740.378 208.344 740.378 202.52C740.378 196.696 740.089 192.568 739.513 190.136C739.001 187.64 737.978 185.976 736.442 185.144C734.97 184.312 732.441 183.896 728.857 183.896C725.977 183.896 723.706 184.376 722.042 185.336C720.378 186.232 719.226 187.736 718.586 189.848C718.074 191.32 717.753 193.016 717.625 194.936C717.497 196.856 717.433 199.384 717.433 202.52C717.433 208.216 717.753 212.184 718.393 214.424C719.097 216.856 720.281 218.584 721.945 219.608C723.609 220.632 725.913 221.144 728.857 221.144Z"/>
<path d="M795.331 205.016H765.956C765.956 210.008 766.212 213.592 766.724 215.768C767.3 217.944 768.516 219.448 770.372 220.28C772.292 221.112 775.427 221.528 779.779 221.528C783.875 221.528 788.516 221.176 793.7 220.472V226.424C791.972 226.808 789.636 227.128 786.692 227.384C783.812 227.64 780.996 227.768 778.244 227.768C772.356 227.768 768.036 227.032 765.284 225.56C762.532 224.024 760.708 221.56 759.812 218.168C758.98 214.776 758.563 209.592 758.563 202.616C758.563 195.704 758.948 190.584 759.716 187.256C760.484 183.864 762.211 181.368 764.899 179.768C767.651 178.104 771.971 177.272 777.859 177.272C783.363 177.272 787.331 178.072 789.763 179.672C792.195 181.208 793.732 183.64 794.372 186.968C795.012 190.232 795.331 195.416 795.331 202.52V205.016ZM777.667 183.512C774.019 183.512 771.395 183.896 769.795 184.664C768.259 185.432 767.236 186.904 766.724 189.08C766.212 191.192 765.956 194.68 765.956 199.544H788.323V198.584C788.323 194.04 788.004 190.744 787.364 188.696C786.788 186.584 785.764 185.208 784.292 184.568C782.884 183.864 780.675 183.512 777.667 183.512Z"/>
<path d="M808.013 178.04H814.541L814.924 187.352H815.5C816.46 183.512 818.124 180.888 820.492 179.48C822.924 178.008 826.093 177.272 829.997 177.272V184.664C826.157 184.664 823.148 185.368 820.972 186.776C818.86 188.12 817.389 190.2 816.557 193.016C815.725 195.768 815.308 199.448 815.308 204.056V227H808.013V178.04Z"/>
<path d="M859.57 164.024V155.672H867.346V164.024H859.57ZM851.891 240.056C854.323 240.056 856.082 239.896 857.17 239.576C858.258 239.256 858.962 238.744 859.282 238.04C859.602 237.336 859.763 236.248 859.763 234.776V178.04H867.058V232.664C867.058 236.76 866.579 239.704 865.619 241.496C864.723 243.352 863.251 244.536 861.203 245.048C859.219 245.624 856.115 245.912 851.891 245.912V240.056Z"/>
<path d="M881.513 178.04H888.041L888.424 187.352H889C889.96 183.512 891.624 180.888 893.992 179.48C896.424 178.008 899.593 177.272 903.497 177.272V184.664C899.657 184.664 896.648 185.368 894.472 186.776C892.36 188.12 890.889 190.2 890.057 193.016C889.225 195.768 888.808 199.448 888.808 204.056V227H881.513V178.04Z"/>
<path d="M905.76 227V217.976H914.208V227H905.76Z"/>
</mask>
<path d="M50.3591 76L44.5031 57.952H19.5431L13.7831 76H6.00714L27.1271 9.952H37.2071L58.3271 76H50.3591ZM32.3111 18.4H31.8311L21.4631 51.136H42.4871L32.3111 18.4Z" stroke="white" stroke-width="8" mask="url(#path-1-outside-1)"/>
<path d="M67.8094 76V4.672H75.1054V76H67.8094Z" stroke="white" stroke-width="8" mask="url(#path-1-outside-1)"/>
<path d="M111.063 76.768C107.543 76.768 104.567 76.256 102.135 75.232C99.7674 74.144 98.0394 72.128 96.9514 69.184H96.4714L96.0874 76H89.5594V4.672H96.8554V33.088H97.3354C98.4234 30.656 100.087 28.928 102.327 27.904C104.631 26.816 107.575 26.272 111.159 26.272C115.511 26.272 118.807 27.008 121.047 28.48C123.287 29.952 124.855 32.448 125.751 35.968C126.647 39.488 127.095 44.672 127.095 51.52C127.095 58.368 126.615 63.584 125.655 67.168C124.759 70.688 123.191 73.184 120.951 74.656C118.711 76.064 115.415 76.768 111.063 76.768ZM108.279 70.144C111.863 70.144 114.391 69.76 115.863 68.992C117.399 68.16 118.423 66.496 118.935 64C119.511 61.504 119.799 57.344 119.799 51.52C119.799 45.696 119.511 41.568 118.935 39.136C118.423 36.64 117.399 34.976 115.863 34.144C114.391 33.312 111.863 32.896 108.279 32.896C105.527 32.896 103.319 33.312 101.655 34.144C100.055 34.976 98.9354 36.288 98.2954 38.08C97.7194 39.616 97.3354 41.44 97.1434 43.552C96.9514 45.6 96.8554 48.256 96.8554 51.52C96.8554 54.656 96.9514 57.248 97.1434 59.296C97.3354 61.344 97.6874 63.136 98.1994 64.672C98.8394 66.592 99.9594 68 101.559 68.896C103.223 69.728 105.463 70.144 108.279 70.144Z" stroke="white" stroke-width="8" mask="url(#path-1-outside-1)"/>
<path d="M174.753 54.016H145.377C145.377 59.008 145.633 62.592 146.145 64.768C146.721 66.944 147.937 68.448 149.793 69.28C151.713 70.112 154.849 70.528 159.201 70.528C163.297 70.528 167.937 70.176 173.121 69.472V75.424C171.393 75.808 169.057 76.128 166.113 76.384C163.233 76.64 160.417 76.768 157.665 76.768C151.777 76.768 147.457 76.032 144.705 74.56C141.953 73.024 140.129 70.56 139.233 67.168C138.401 63.776 137.985 58.592 137.985 51.616C137.985 44.704 138.369 39.584 139.137 36.256C139.905 32.864 141.633 30.368 144.321 28.768C147.073 27.104 151.393 26.272 157.281 26.272C162.785 26.272 166.753 27.072 169.185 28.672C171.617 30.208 173.153 32.64 173.793 35.968C174.433 39.232 174.753 44.416 174.753 51.52V54.016ZM157.089 32.512C153.441 32.512 150.817 32.896 149.217 33.664C147.681 34.432 146.657 35.904 146.145 38.08C145.633 40.192 145.377 43.68 145.377 48.544H167.745V47.584C167.745 43.04 167.425 39.744 166.785 37.696C166.209 35.584 165.185 34.208 163.713 33.568C162.305 32.864 160.097 32.512 157.089 32.512Z" stroke="white" stroke-width="8" mask="url(#path-1-outside-1)"/>
<path d="M187.434 27.04H193.962L194.346 36.352H194.922C195.882 32.512 197.546 29.888 199.914 28.48C202.346 27.008 205.514 26.272 209.418 26.272V33.664C205.578 33.664 202.57 34.368 200.394 35.776C198.282 37.12 196.81 39.2 195.978 42.016C195.146 44.768 194.73 48.448 194.73 53.056V76H187.434V27.04Z" stroke="white" stroke-width="8" mask="url(#path-1-outside-1)"/>
<path d="M222.861 76V33.376H214.317V27.04H222.861V12.832H230.157V27.04H240.237V33.376H230.157V76H222.861Z" stroke="white" stroke-width="8" mask="url(#path-1-outside-1)"/>
<path d="M266.589 76.768C260.573 76.768 256.253 76.096 253.629 74.752C251.005 73.344 249.309 71.008 248.541 67.744C247.837 64.416 247.485 59.008 247.485 51.52C247.485 44.032 247.837 38.656 248.541 35.392C249.309 32.064 251.005 29.728 253.629 28.384C256.253 26.976 260.573 26.272 266.589 26.272C272.605 26.272 276.925 26.976 279.549 28.384C282.173 29.728 283.837 32.064 284.541 35.392C285.309 38.656 285.693 44.032 285.693 51.52C285.693 59.008 285.309 64.416 284.541 67.744C283.837 71.008 282.173 73.344 279.549 74.752C276.925 76.096 272.605 76.768 266.589 76.768ZM266.589 70.432C270.557 70.432 273.309 70.016 274.845 69.184C276.445 68.288 277.437 66.688 277.821 64.384C278.205 62.016 278.397 57.728 278.397 51.52C278.397 45.312 278.205 41.056 277.821 38.752C277.437 36.384 276.445 34.784 274.845 33.952C273.309 33.056 270.557 32.608 266.589 32.608C262.621 32.608 259.869 33.056 258.333 33.952C256.797 34.784 255.837 36.384 255.453 38.752C255.069 41.056 254.877 45.312 254.877 51.52C254.877 57.792 255.069 62.08 255.453 64.384C255.837 66.688 256.797 68.288 258.333 69.184C259.869 70.016 262.621 70.432 266.589 70.432Z" stroke="white" stroke-width="8" mask="url(#path-1-outside-1)"/>
<path d="M319.647 76V9.952H327.327V68.992H353.439V76H319.647Z" stroke="white" stroke-width="8" mask="url(#path-1-outside-1)"/>
<path d="M397.785 54.016H368.409C368.409 59.008 368.665 62.592 369.177 64.768C369.753 66.944 370.969 68.448 372.825 69.28C374.745 70.112 377.881 70.528 382.233 70.528C386.329 70.528 390.969 70.176 396.153 69.472V75.424C394.425 75.808 392.089 76.128 389.145 76.384C386.265 76.64 383.449 76.768 380.697 76.768C374.809 76.768 370.489 76.032 367.737 74.56C364.985 73.024 363.161 70.56 362.265 67.168C361.433 63.776 361.017 58.592 361.017 51.616C361.017 44.704 361.401 39.584 362.169 36.256C362.937 32.864 364.665 30.368 367.353 28.768C370.105 27.104 374.425 26.272 380.313 26.272C385.817 26.272 389.785 27.072 392.217 28.672C394.649 30.208 396.185 32.64 396.825 35.968C397.465 39.232 397.785 44.416 397.785 51.52V54.016ZM380.121 32.512C376.473 32.512 373.849 32.896 372.249 33.664C370.713 34.432 369.689 35.904 369.177 38.08C368.665 40.192 368.409 43.68 368.409 48.544H390.777V47.584C390.777 43.04 390.457 39.744 389.817 37.696C389.241 35.584 388.217 34.208 386.745 33.568C385.337 32.864 383.129 32.512 380.121 32.512Z" stroke="white" stroke-width="8" mask="url(#path-1-outside-1)"/>
<path d="M422.082 76.768C416.962 76.768 413.282 75.744 411.042 73.696C408.802 71.584 407.682 67.84 407.682 62.464C407.682 58.752 408.066 55.872 408.834 53.824C409.666 51.712 411.042 50.208 412.962 49.312C414.946 48.352 417.698 47.872 421.218 47.872C423.01 47.872 428.226 48.032 436.866 48.352V45.088C436.866 41.12 436.546 38.304 435.906 36.64C435.266 34.912 434.082 33.824 432.354 33.376C430.69 32.864 427.842 32.608 423.81 32.608C422.018 32.608 419.746 32.704 416.994 32.896C414.306 33.088 412.13 33.312 410.466 33.568V27.616C414.946 26.72 420.162 26.272 426.114 26.272C431.234 26.272 435.042 26.848 437.538 28C440.098 29.088 441.826 30.944 442.722 33.568C443.682 36.192 444.162 40.032 444.162 45.088V76H437.634L437.25 69.184H436.77C435.618 72.256 433.73 74.304 431.106 75.328C428.546 76.288 425.538 76.768 422.082 76.768ZM424.674 70.432C427.362 70.432 429.538 70.176 431.202 69.664C432.93 69.088 434.21 67.968 435.042 66.304C436.258 63.808 436.866 60.448 436.866 56.224V53.44H423.138C420.77 53.44 419.01 53.664 417.858 54.112C416.77 54.496 416.002 55.296 415.554 56.512C415.106 57.664 414.882 59.488 414.882 61.984C414.882 64.416 415.138 66.208 415.65 67.36C416.162 68.512 417.09 69.312 418.434 69.76C419.778 70.208 421.858 70.432 424.674 70.432Z" stroke="white" stroke-width="8" mask="url(#path-1-outside-1)"/>
<path d="M487.554 47.776C487.554 43.104 487.298 39.808 486.786 37.888C486.338 35.904 485.41 34.592 484.002 33.952C482.658 33.312 480.386 32.992 477.186 32.992C473.666 32.992 471.074 33.664 469.41 35.008C467.81 36.288 466.786 38.112 466.338 40.48C465.954 42.848 465.762 46.208 465.762 50.56V76H458.466V27.04H464.994L465.378 33.952H465.858C466.818 31.456 468.386 29.568 470.562 28.288C472.802 26.944 476.002 26.272 480.162 26.272C484.322 26.272 487.426 26.912 489.474 28.192C491.586 29.472 492.994 31.424 493.698 34.048C494.466 36.672 494.85 40.352 494.85 45.088V76H487.554V47.776Z" stroke="white" stroke-width="8" mask="url(#path-1-outside-1)"/>
<path d="M523.582 76.768C519.23 76.768 515.902 76.064 513.598 74.656C511.358 73.184 509.758 70.688 508.798 67.168C507.902 63.648 507.454 58.464 507.454 51.616C507.454 44.768 507.902 39.584 508.798 36.064C509.694 32.48 511.262 29.952 513.502 28.48C515.742 27.008 519.038 26.272 523.39 26.272C526.974 26.272 529.886 26.816 532.126 27.904C534.43 28.928 536.126 30.656 537.214 33.088H537.694V4.672H544.99V76H538.462L538.174 69.184H537.598C536.51 72.128 534.75 74.144 532.318 75.232C529.95 76.256 527.038 76.768 523.582 76.768ZM526.366 70.144C529.182 70.144 531.39 69.728 532.99 68.896C534.654 68 535.806 66.592 536.446 64.672C536.958 63.072 537.278 61.28 537.406 59.296C537.598 57.248 537.694 54.432 537.694 50.848C537.694 48.096 537.63 45.856 537.502 44.128C537.374 42.336 537.118 40.768 536.734 39.424C536.094 37.12 534.942 35.456 533.278 34.432C531.614 33.408 529.246 32.896 526.174 32.896C522.654 32.896 520.126 33.312 518.59 34.144C517.118 34.976 516.126 36.64 515.614 39.136C515.102 41.568 514.846 45.696 514.846 51.52C514.846 57.344 515.102 61.504 515.614 64C516.126 66.496 517.15 68.16 518.686 68.992C520.222 69.76 522.782 70.144 526.366 70.144Z" stroke="white" stroke-width="8" mask="url(#path-1-outside-1)"/>
<path d="M559.528 27.04H566.056L566.44 36.352H567.016C567.976 32.512 569.64 29.888 572.008 28.48C574.44 27.008 577.608 26.272 581.512 26.272V33.664C577.672 33.664 574.664 34.368 572.488 35.776C570.376 37.12 568.904 39.2 568.072 42.016C567.24 44.768 566.824 48.448 566.824 53.056V76H559.528V27.04Z" stroke="white" stroke-width="8" mask="url(#path-1-outside-1)"/>
<path d="M607.746 76.768C601.73 76.768 597.41 76.096 594.786 74.752C592.162 73.344 590.466 71.008 589.698 67.744C588.994 64.416 588.642 59.008 588.642 51.52C588.642 44.032 588.994 38.656 589.698 35.392C590.466 32.064 592.162 29.728 594.786 28.384C597.41 26.976 601.73 26.272 607.746 26.272C613.762 26.272 618.082 26.976 620.706 28.384C623.33 29.728 624.994 32.064 625.698 35.392C626.466 38.656 626.85 44.032 626.85 51.52C626.85 59.008 626.466 64.416 625.698 67.744C624.994 71.008 623.33 73.344 620.706 74.752C618.082 76.096 613.762 76.768 607.746 76.768ZM607.746 70.432C611.714 70.432 614.466 70.016 616.002 69.184C617.602 68.288 618.594 66.688 618.978 64.384C619.362 62.016 619.554 57.728 619.554 51.52C619.554 45.312 619.362 41.056 618.978 38.752C618.594 36.384 617.602 34.784 616.002 33.952C614.466 33.056 611.714 32.608 607.746 32.608C603.778 32.608 601.026 33.056 599.49 33.952C597.954 34.784 596.994 36.384 596.61 38.752C596.226 41.056 596.034 45.312 596.034 51.52C596.034 57.792 596.226 62.08 596.61 64.384C596.994 66.688 597.954 68.288 599.49 69.184C601.026 70.016 603.778 70.432 607.746 70.432Z" stroke="white" stroke-width="8" mask="url(#path-1-outside-1)"/>
<path d="M679.331 76.768C676.003 76.768 672.515 76.64 668.867 76.384C665.283 76.192 662.147 75.872 659.459 75.424V68.896C666.243 69.6 672.099 69.952 677.027 69.952C680.099 69.952 682.499 69.792 684.227 69.472C686.019 69.152 687.491 68.576 688.643 67.744C689.795 66.976 690.531 65.824 690.851 64.288C691.171 62.688 691.331 60.544 691.331 57.856C691.331 54.464 691.171 52.096 690.851 50.752C690.531 49.408 689.795 48.448 688.643 47.872C687.555 47.296 685.571 46.816 682.691 46.432L669.155 44.704C665.891 44.256 663.427 43.328 661.763 41.92C660.163 40.512 659.107 38.688 658.595 36.448C658.083 34.208 657.827 31.264 657.827 27.616C657.827 22.688 658.595 18.912 660.131 16.288C661.667 13.6 663.907 11.744 666.851 10.72C669.859 9.696 673.795 9.184 678.659 9.184C681.987 9.184 685.219 9.34399 688.355 9.66399C691.555 9.91999 694.179 10.272 696.227 10.72V17.056C691.491 16.352 686.211 16 680.387 16C677.123 16 674.531 16.192 672.611 16.576C670.691 16.96 669.219 17.568 668.195 18.4C667.107 19.232 666.371 20.352 665.987 21.76C665.667 23.104 665.507 24.992 665.507 27.424C665.507 30.24 665.667 32.288 665.987 33.568C666.307 34.848 666.947 35.776 667.907 36.352C668.867 36.864 670.435 37.248 672.611 37.504L685.859 39.232C689.315 39.68 691.939 40.384 693.731 41.344C695.587 42.24 696.963 43.904 697.859 46.336C698.691 48.384 699.107 51.968 699.107 57.088C699.107 62.528 698.371 66.688 696.899 69.568C695.427 72.384 693.283 74.304 690.467 75.328C687.715 76.288 684.003 76.768 679.331 76.768Z" stroke="white" stroke-width="8" mask="url(#path-1-outside-1)"/>
<path d="M723.207 76.768C718.087 76.768 714.407 75.744 712.167 73.696C709.927 71.584 708.807 67.84 708.807 62.464C708.807 58.752 709.191 55.872 709.959 53.824C710.791 51.712 712.167 50.208 714.087 49.312C716.071 48.352 718.823 47.872 722.343 47.872C724.135 47.872 729.351 48.032 737.991 48.352V45.088C737.991 41.12 737.671 38.304 737.031 36.64C736.391 34.912 735.207 33.824 733.479 33.376C731.815 32.864 728.967 32.608 724.935 32.608C723.143 32.608 720.871 32.704 718.119 32.896C715.431 33.088 713.255 33.312 711.591 33.568V27.616C716.071 26.72 721.287 26.272 727.239 26.272C732.359 26.272 736.167 26.848 738.663 28C741.223 29.088 742.951 30.944 743.847 33.568C744.807 36.192 745.287 40.032 745.287 45.088V76H738.759L738.375 69.184H737.895C736.743 72.256 734.855 74.304 732.231 75.328C729.671 76.288 726.663 76.768 723.207 76.768ZM725.799 70.432C728.487 70.432 730.663 70.176 732.327 69.664C734.055 69.088 735.335 67.968 736.167 66.304C737.383 63.808 737.991 60.448 737.991 56.224V53.44H724.263C721.895 53.44 720.135 53.664 718.983 54.112C717.895 54.496 717.127 55.296 716.679 56.512C716.231 57.664 716.007 59.488 716.007 61.984C716.007 64.416 716.263 66.208 716.775 67.36C717.287 68.512 718.215 69.312 719.559 69.76C720.903 70.208 722.983 70.432 725.799 70.432Z" stroke="white" stroke-width="8" mask="url(#path-1-outside-1)"/>
<path d="M788.679 47.776C788.679 43.104 788.423 39.808 787.911 37.888C787.463 35.904 786.535 34.592 785.127 33.952C783.783 33.312 781.511 32.992 778.311 32.992C774.791 32.992 772.199 33.664 770.535 35.008C768.935 36.288 767.911 38.112 767.463 40.48C767.079 42.848 766.887 46.208 766.887 50.56V76H759.591V27.04H766.119L766.503 33.952H766.983C767.943 31.456 769.511 29.568 771.687 28.288C773.927 26.944 777.127 26.272 781.287 26.272C785.447 26.272 788.551 26.912 790.599 28.192C792.711 29.472 794.119 31.424 794.823 34.048C795.591 36.672 795.975 40.352 795.975 45.088V76H788.679V47.776Z" stroke="white" stroke-width="8" mask="url(#path-1-outside-1)"/>
<path d="M838.243 75.52C836.707 75.84 834.819 76.128 832.579 76.384C830.403 76.64 828.355 76.768 826.435 76.768C821.059 76.768 817.091 75.936 814.531 74.272C812.035 72.544 810.403 69.984 809.635 66.592C808.931 63.2 808.579 58.176 808.579 51.52C808.579 44.864 809.027 39.808 809.923 36.352C810.819 32.832 812.515 30.272 815.011 28.672C817.507 27.072 821.219 26.272 826.147 26.272C828.131 26.272 830.211 26.4 832.387 26.656C834.563 26.912 836.387 27.2 837.859 27.52V33.568C834.659 32.928 831.331 32.608 827.875 32.608C824.291 32.608 821.667 33.088 820.003 34.048C818.403 35.008 817.315 36.768 816.739 39.328C816.227 41.888 815.971 45.952 815.971 51.52C815.971 57.216 816.259 61.344 816.835 63.904C817.411 66.4 818.499 68.128 820.099 69.088C821.763 69.984 824.419 70.432 828.067 70.432C831.523 70.432 834.915 70.112 838.243 69.472V75.52Z" stroke="white" stroke-width="8" mask="url(#path-1-outside-1)"/>
<path d="M878.491 47.776C878.491 43.104 878.235 39.808 877.723 37.888C877.275 35.904 876.347 34.592 874.939 33.952C873.595 33.312 871.323 32.992 868.123 32.992C864.603 32.992 862.011 33.664 860.347 35.008C858.747 36.288 857.723 38.112 857.275 40.48C856.891 42.848 856.699 46.208 856.699 50.56V76H849.403V4.672H856.699V33.28H857.179C858.139 31.104 859.675 29.408 861.787 28.192C863.963 26.912 867.067 26.272 871.099 26.272C875.259 26.272 878.363 26.912 880.411 28.192C882.523 29.472 883.931 31.424 884.635 34.048C885.403 36.608 885.787 40.256 885.787 44.992V76H878.491V47.776Z" stroke="white" stroke-width="8" mask="url(#path-1-outside-1)"/>
<path d="M935.16 54.016H905.784C905.784 59.008 906.04 62.592 906.552 64.768C907.128 66.944 908.344 68.448 910.2 69.28C912.12 70.112 915.256 70.528 919.608 70.528C923.704 70.528 928.344 70.176 933.528 69.472V75.424C931.8 75.808 929.464 76.128 926.52 76.384C923.64 76.64 920.824 76.768 918.072 76.768C912.184 76.768 907.864 76.032 905.112 74.56C902.36 73.024 900.536 70.56 899.64 67.168C898.808 63.776 898.392 58.592 898.392 51.616C898.392 44.704 898.776 39.584 899.544 36.256C900.312 32.864 902.04 30.368 904.728 28.768C907.48 27.104 911.8 26.272 917.688 26.272C923.192 26.272 927.16 27.072 929.592 28.672C932.024 30.208 933.56 32.64 934.2 35.968C934.84 39.232 935.16 44.416 935.16 51.52V54.016ZM917.496 32.512C913.848 32.512 911.224 32.896 909.624 33.664C908.088 34.432 907.064 35.904 906.552 38.08C906.04 40.192 905.784 43.68 905.784 48.544H928.152V47.584C928.152 43.04 927.832 39.744 927.192 37.696C926.616 35.584 925.592 34.208 924.12 33.568C922.712 32.864 920.504 32.512 917.496 32.512Z" stroke="white" stroke-width="8" mask="url(#path-1-outside-1)"/>
<path d="M944.865 76V70.24L969.729 33.376H945.825V27.04H978.849V32.8L953.985 69.664H979.041V76H944.865Z" stroke="white" stroke-width="8" mask="url(#path-1-outside-1)"/>
<path d="M75.2873 227V160.952H110.615V167.768H82.9673V191.672H107.639V198.488H82.9673V227H75.2873Z" stroke="white" stroke-width="8" mask="url(#path-1-outside-1)"/>
<path d="M121.013 178.04H127.541L127.925 187.352H128.501C129.461 183.512 131.125 180.888 133.493 179.48C135.925 178.008 139.093 177.272 142.997 177.272V184.664C139.157 184.664 136.149 185.368 133.973 186.776C131.861 188.12 130.389 190.2 129.557 193.016C128.725 195.768 128.309 199.448 128.309 204.056V227H121.013V178.04Z" stroke="white" stroke-width="8" mask="url(#path-1-outside-1)"/>
<path d="M169.23 227.768C163.214 227.768 158.894 227.096 156.27 225.752C153.646 224.344 151.95 222.008 151.182 218.744C150.478 215.416 150.126 210.008 150.126 202.52C150.126 195.032 150.478 189.656 151.182 186.392C151.95 183.064 153.646 180.728 156.27 179.384C158.894 177.976 163.214 177.272 169.23 177.272C175.246 177.272 179.566 177.976 182.19 179.384C184.814 180.728 186.478 183.064 187.182 186.392C187.95 189.656 188.334 195.032 188.334 202.52C188.334 210.008 187.95 215.416 187.182 218.744C186.478 222.008 184.814 224.344 182.19 225.752C179.566 227.096 175.246 227.768 169.23 227.768ZM169.23 221.432C173.198 221.432 175.95 221.016 177.486 220.184C179.086 219.288 180.078 217.688 180.462 215.384C180.846 213.016 181.038 208.728 181.038 202.52C181.038 196.312 180.846 192.056 180.462 189.752C180.078 187.384 179.086 185.784 177.486 184.952C175.95 184.056 173.198 183.608 169.23 183.608C165.262 183.608 162.51 184.056 160.974 184.952C159.438 185.784 158.478 187.384 158.094 189.752C157.71 192.056 157.518 196.312 157.518 202.52C157.518 208.792 157.71 213.08 158.094 215.384C158.478 217.688 159.438 219.288 160.974 220.184C162.51 221.016 165.262 221.432 169.23 221.432Z" stroke="white" stroke-width="8" mask="url(#path-1-outside-1)"/>
<path d="M229.976 198.776C229.976 194.104 229.72 190.808 229.208 188.888C228.76 186.904 227.832 185.592 226.424 184.952C225.08 184.312 222.808 183.992 219.608 183.992C216.088 183.992 213.496 184.664 211.832 186.008C210.232 187.288 209.208 189.112 208.76 191.48C208.376 193.848 208.184 197.208 208.184 201.56V227H200.888V178.04H207.416L207.8 184.952H208.28C209.24 182.456 210.808 180.568 212.984 179.288C215.224 177.944 218.424 177.272 222.584 177.272C226.744 177.272 229.848 177.912 231.896 179.192C234.008 180.472 235.416 182.424 236.12 185.048C236.888 187.672 237.272 191.352 237.272 196.088V227H229.976V198.776Z" stroke="white" stroke-width="8" mask="url(#path-1-outside-1)"/>
<path d="M255.252 227V184.376H246.708V178.04H255.252V163.832H262.548V178.04H272.628V184.376H262.548V227H255.252Z" stroke="white" stroke-width="8" mask="url(#path-1-outside-1)"/>
<path d="M316.644 205.016H287.268C287.268 210.008 287.524 213.592 288.036 215.768C288.612 217.944 289.828 219.448 291.684 220.28C293.604 221.112 296.74 221.528 301.092 221.528C305.188 221.528 309.828 221.176 315.012 220.472V226.424C313.284 226.808 310.948 227.128 308.004 227.384C305.124 227.64 302.308 227.768 299.556 227.768C293.668 227.768 289.348 227.032 286.596 225.56C283.844 224.024 282.02 221.56 281.124 218.168C280.292 214.776 279.876 209.592 279.876 202.616C279.876 195.704 280.26 190.584 281.028 187.256C281.796 183.864 283.524 181.368 286.212 179.768C288.964 178.104 293.284 177.272 299.172 177.272C304.676 177.272 308.644 178.072 311.076 179.672C313.508 181.208 315.044 183.64 315.684 186.968C316.324 190.232 316.644 195.416 316.644 202.52V205.016ZM298.98 183.512C295.332 183.512 292.708 183.896 291.108 184.664C289.572 185.432 288.548 186.904 288.036 189.08C287.524 191.192 287.268 194.68 287.268 199.544H309.636V198.584C309.636 194.04 309.316 190.744 308.676 188.696C308.1 186.584 307.076 185.208 305.604 184.568C304.196 183.864 301.988 183.512 298.98 183.512Z" stroke="white" stroke-width="8" mask="url(#path-1-outside-1)"/>
<path d="M358.413 198.776C358.413 194.104 358.157 190.808 357.645 188.888C357.197 186.904 356.269 185.592 354.861 184.952C353.517 184.312 351.245 183.992 348.045 183.992C344.525 183.992 341.933 184.664 340.269 186.008C338.669 187.288 337.645 189.112 337.197 191.48C336.813 193.848 336.621 197.208 336.621 201.56V227H329.325V178.04H335.853L336.237 184.952H336.717C337.677 182.456 339.245 180.568 341.421 179.288C343.661 177.944 346.861 177.272 351.021 177.272C355.181 177.272 358.285 177.912 360.333 179.192C362.445 180.472 363.853 182.424 364.557 185.048C365.325 187.672 365.709 191.352 365.709 196.088V227H358.413V198.776Z" stroke="white" stroke-width="8" mask="url(#path-1-outside-1)"/>
<path d="M394.442 227.768C390.09 227.768 386.762 227.064 384.458 225.656C382.218 224.184 380.618 221.688 379.658 218.168C378.762 214.648 378.314 209.464 378.314 202.616C378.314 195.768 378.762 190.584 379.658 187.064C380.554 183.48 382.122 180.952 384.362 179.48C386.602 178.008 389.898 177.272 394.25 177.272C397.834 177.272 400.746 177.816 402.986 178.904C405.29 179.928 406.986 181.656 408.074 184.088H408.554V155.672H415.849V227H409.322L409.034 220.184H408.458C407.37 223.128 405.609 225.144 403.177 226.232C400.809 227.256 397.898 227.768 394.442 227.768ZM397.226 221.144C400.042 221.144 402.249 220.728 403.849 219.896C405.513 219 406.666 217.592 407.306 215.672C407.818 214.072 408.138 212.28 408.266 210.296C408.458 208.248 408.554 205.432 408.554 201.848C408.554 199.096 408.49 196.856 408.362 195.128C408.234 193.336 407.978 191.768 407.594 190.424C406.954 188.12 405.802 186.456 404.138 185.432C402.474 184.408 400.106 183.896 397.034 183.896C393.514 183.896 390.986 184.312 389.45 185.144C387.978 185.976 386.986 187.64 386.474 190.136C385.962 192.568 385.706 196.696 385.706 202.52C385.706 208.344 385.962 212.504 386.474 215C386.986 217.496 388.01 219.16 389.546 219.992C391.082 220.76 393.642 221.144 397.226 221.144Z" stroke="white" stroke-width="8" mask="url(#path-1-outside-1)"/>
<path d="M465.035 227.768C460.683 227.768 457.355 227.064 455.051 225.656C452.811 224.184 451.211 221.688 450.251 218.168C449.355 214.648 448.907 209.464 448.907 202.616C448.907 195.768 449.355 190.584 450.251 187.064C451.147 183.48 452.715 180.952 454.955 179.48C457.195 178.008 460.491 177.272 464.843 177.272C468.427 177.272 471.339 177.816 473.579 178.904C475.883 179.928 477.579 181.656 478.667 184.088H479.147V155.672H486.443V227H479.915L479.627 220.184H479.051C477.963 223.128 476.203 225.144 473.771 226.232C471.403 227.256 468.491 227.768 465.035 227.768ZM467.819 221.144C470.635 221.144 472.843 220.728 474.443 219.896C476.107 219 477.259 217.592 477.899 215.672C478.411 214.072 478.731 212.28 478.859 210.296C479.051 208.248 479.147 205.432 479.147 201.848C479.147 199.096 479.083 196.856 478.955 195.128C478.827 193.336 478.571 191.768 478.187 190.424C477.547 188.12 476.395 186.456 474.731 185.432C473.067 184.408 470.699 183.896 467.627 183.896C464.107 183.896 461.579 184.312 460.043 185.144C458.571 185.976 457.579 187.64 457.067 190.136C456.555 192.568 456.299 196.696 456.299 202.52C456.299 208.344 456.555 212.504 457.067 215C457.579 217.496 458.603 219.16 460.139 219.992C461.675 220.76 464.235 221.144 467.819 221.144Z" stroke="white" stroke-width="8" mask="url(#path-1-outside-1)"/>
<path d="M535.925 205.016H506.549C506.549 210.008 506.805 213.592 507.317 215.768C507.893 217.944 509.109 219.448 510.965 220.28C512.885 221.112 516.021 221.528 520.373 221.528C524.469 221.528 529.109 221.176 534.293 220.472V226.424C532.565 226.808 530.229 227.128 527.285 227.384C524.405 227.64 521.589 227.768 518.837 227.768C512.949 227.768 508.629 227.032 505.877 225.56C503.125 224.024 501.301 221.56 500.405 218.168C499.573 214.776 499.157 209.592 499.157 202.616C499.157 195.704 499.541 190.584 500.309 187.256C501.077 183.864 502.805 181.368 505.493 179.768C508.245 178.104 512.565 177.272 518.453 177.272C523.957 177.272 527.925 178.072 530.357 179.672C532.789 181.208 534.325 183.64 534.965 186.968C535.605 190.232 535.925 195.416 535.925 202.52V205.016ZM518.261 183.512C514.613 183.512 511.989 183.896 510.389 184.664C508.853 185.432 507.829 186.904 507.317 189.08C506.805 191.192 506.549 194.68 506.549 199.544H528.917V198.584C528.917 194.04 528.597 190.744 527.957 188.696C527.381 186.584 526.357 185.208 524.885 184.568C523.477 183.864 521.269 183.512 518.261 183.512Z" stroke="white" stroke-width="8" mask="url(#path-1-outside-1)"/>
<path d="M558.421 227L542.677 178.04H550.357L562.741 218.648H563.413L575.797 178.04H583.285L567.637 227H558.421Z" stroke="white" stroke-width="8" mask="url(#path-1-outside-1)"/>
<path d="M626.769 205.016H597.393C597.393 210.008 597.649 213.592 598.161 215.768C598.737 217.944 599.953 219.448 601.809 220.28C603.729 221.112 606.865 221.528 611.217 221.528C615.313 221.528 619.953 221.176 625.137 220.472V226.424C623.409 226.808 621.073 227.128 618.129 227.384C615.249 227.64 612.433 227.768 609.681 227.768C603.793 227.768 599.473 227.032 596.721 225.56C593.969 224.024 592.145 221.56 591.249 218.168C590.417 214.776 590.001 209.592 590.001 202.616C590.001 195.704 590.385 190.584 591.153 187.256C591.921 183.864 593.649 181.368 596.337 179.768C599.089 178.104 603.409 177.272 609.297 177.272C614.801 177.272 618.769 178.072 621.201 179.672C623.633 181.208 625.169 183.64 625.809 186.968C626.449 190.232 626.769 195.416 626.769 202.52V205.016ZM609.105 183.512C605.457 183.512 602.833 183.896 601.233 184.664C599.697 185.432 598.673 186.904 598.161 189.08C597.649 191.192 597.393 194.68 597.393 199.544H619.761V198.584C619.761 194.04 619.441 190.744 618.801 188.696C618.225 186.584 617.201 185.208 615.729 184.568C614.321 183.864 612.113 183.512 609.105 183.512Z" stroke="white" stroke-width="8" mask="url(#path-1-outside-1)"/>
<path d="M639.45 227V155.672H646.746V227H639.45Z" stroke="white" stroke-width="8" mask="url(#path-1-outside-1)"/>
<path d="M678.48 227.768C672.464 227.768 668.144 227.096 665.52 225.752C662.896 224.344 661.2 222.008 660.432 218.744C659.728 215.416 659.376 210.008 659.376 202.52C659.376 195.032 659.728 189.656 660.432 186.392C661.2 183.064 662.896 180.728 665.52 179.384C668.144 177.976 672.464 177.272 678.48 177.272C684.496 177.272 688.816 177.976 691.44 179.384C694.064 180.728 695.728 183.064 696.432 186.392C697.2 189.656 697.584 195.032 697.584 202.52C697.584 210.008 697.2 215.416 696.432 218.744C695.728 222.008 694.064 224.344 691.44 225.752C688.816 227.096 684.496 227.768 678.48 227.768ZM678.48 221.432C682.448 221.432 685.2 221.016 686.736 220.184C688.336 219.288 689.328 217.688 689.712 215.384C690.096 213.016 690.288 208.728 690.288 202.52C690.288 196.312 690.096 192.056 689.712 189.752C689.328 187.384 688.336 185.784 686.736 184.952C685.2 184.056 682.448 183.608 678.48 183.608C674.512 183.608 671.76 184.056 670.224 184.952C668.688 185.784 667.728 187.384 667.344 189.752C666.96 192.056 666.768 196.312 666.768 202.52C666.768 208.792 666.96 213.08 667.344 215.384C667.728 217.688 668.688 219.288 670.224 220.184C671.76 221.016 674.512 221.432 678.48 221.432Z" stroke="white" stroke-width="8" mask="url(#path-1-outside-1)"/>
<path d="M710.138 178.04H716.666L717.049 184.952H717.529C718.617 181.944 720.378 179.928 722.81 178.904C725.242 177.816 728.185 177.272 731.641 177.272C735.993 177.272 739.289 178.008 741.529 179.48C743.769 180.888 745.338 183.352 746.234 186.872C747.194 190.392 747.674 195.576 747.674 202.424C747.674 209.272 747.226 214.488 746.33 218.072C745.434 221.592 743.865 224.088 741.625 225.56C739.385 227.032 736.089 227.768 731.737 227.768C728.089 227.768 725.146 227.256 722.906 226.232C720.666 225.144 719.034 223.352 718.01 220.856H717.433V245.816H710.138V178.04ZM728.857 221.144C732.441 221.144 734.97 220.728 736.442 219.896C737.978 219.064 739.001 217.432 739.513 215C740.089 212.504 740.378 208.344 740.378 202.52C740.378 196.696 740.089 192.568 739.513 190.136C739.001 187.64 737.978 185.976 736.442 185.144C734.97 184.312 732.441 183.896 728.857 183.896C725.977 183.896 723.706 184.376 722.042 185.336C720.378 186.232 719.226 187.736 718.586 189.848C718.074 191.32 717.753 193.016 717.625 194.936C717.497 196.856 717.433 199.384 717.433 202.52C717.433 208.216 717.753 212.184 718.393 214.424C719.097 216.856 720.281 218.584 721.945 219.608C723.609 220.632 725.913 221.144 728.857 221.144Z" stroke="white" stroke-width="8" mask="url(#path-1-outside-1)"/>
<path d="M795.331 205.016H765.956C765.956 210.008 766.212 213.592 766.724 215.768C767.3 217.944 768.516 219.448 770.372 220.28C772.292 221.112 775.427 221.528 779.779 221.528C783.875 221.528 788.516 221.176 793.7 220.472V226.424C791.972 226.808 789.636 227.128 786.692 227.384C783.812 227.64 780.996 227.768 778.244 227.768C772.356 227.768 768.036 227.032 765.284 225.56C762.532 224.024 760.708 221.56 759.812 218.168C758.98 214.776 758.563 209.592 758.563 202.616C758.563 195.704 758.948 190.584 759.716 187.256C760.484 183.864 762.211 181.368 764.899 179.768C767.651 178.104 771.971 177.272 777.859 177.272C783.363 177.272 787.331 178.072 789.763 179.672C792.195 181.208 793.732 183.64 794.372 186.968C795.012 190.232 795.331 195.416 795.331 202.52V205.016ZM777.667 183.512C774.019 183.512 771.395 183.896 769.795 184.664C768.259 185.432 767.236 186.904 766.724 189.08C766.212 191.192 765.956 194.68 765.956 199.544H788.323V198.584C788.323 194.04 788.004 190.744 787.364 188.696C786.788 186.584 785.764 185.208 784.292 184.568C782.884 183.864 780.675 183.512 777.667 183.512Z" stroke="white" stroke-width="8" mask="url(#path-1-outside-1)"/>
<path d="M808.013 178.04H814.541L814.924 187.352H815.5C816.46 183.512 818.124 180.888 820.492 179.48C822.924 178.008 826.093 177.272 829.997 177.272V184.664C826.157 184.664 823.148 185.368 820.972 186.776C818.86 188.12 817.389 190.2 816.557 193.016C815.725 195.768 815.308 199.448 815.308 204.056V227H808.013V178.04Z" stroke="white" stroke-width="8" mask="url(#path-1-outside-1)"/>
<path d="M859.57 164.024V155.672H867.346V164.024H859.57ZM851.891 240.056C854.323 240.056 856.082 239.896 857.17 239.576C858.258 239.256 858.962 238.744 859.282 238.04C859.602 237.336 859.763 236.248 859.763 234.776V178.04H867.058V232.664C867.058 236.76 866.579 239.704 865.619 241.496C864.723 243.352 863.251 244.536 861.203 245.048C859.219 245.624 856.115 245.912 851.891 245.912V240.056Z" stroke="white" stroke-width="8" mask="url(#path-1-outside-1)"/>
<path d="M881.513 178.04H888.041L888.424 187.352H889C889.96 183.512 891.624 180.888 893.992 179.48C896.424 178.008 899.593 177.272 903.497 177.272V184.664C899.657 184.664 896.648 185.368 894.472 186.776C892.36 188.12 890.889 190.2 890.057 193.016C889.225 195.768 888.808 199.448 888.808 204.056V227H881.513V178.04Z" stroke="white" stroke-width="8" mask="url(#path-1-outside-1)"/>
<path d="M905.76 227V217.976H914.208V227H905.76Z" stroke="white" stroke-width="8" mask="url(#path-1-outside-1)"/>
</svg>
