<svg width="104" height="26" viewBox="0 0 104 26" fill="none" xmlns="http://www.w3.org/2000/svg">
<line y1="23.5" x2="93.0054" y2="23.5" stroke="black"/>
<path d="M65.48 6.328C65.48 6.68 65.336 7.088 65.048 7.552C64.808 7.984 64.536 8.28 64.232 8.44C63.944 8.6 63.8 8.584 63.8 8.392C63.8 8.376 63.888 8.28 64.064 8.104C64.592 7.608 64.856 7.2 64.856 6.88C64.856 6.192 64.176 5.848 62.816 5.848C62.24 5.848 61.48 5.96 60.536 6.184C59.592 6.392 58.68 6.736 57.8 7.216C56.776 7.776 56.264 8.264 56.264 8.68C56.264 9.016 56.576 9.336 57.2 9.64C57.536 9.8 58.2 10.072 59.192 10.456C60.2 10.824 61.008 11.152 61.616 11.44C62.24 11.712 62.824 12.104 63.368 12.616C63.928 13.128 64.208 13.696 64.208 14.32C64.208 14.944 63.84 15.624 63.104 16.36C61.984 17.432 60.528 18.32 58.736 19.024C56.944 19.744 55.408 20.104 54.128 20.104C51.6 20.104 50.336 19.392 50.336 17.968C50.336 16.544 51.112 15.336 52.664 14.344C53.944 13.464 55.288 13.024 56.696 13.024C57.032 13.024 57.184 13.08 57.152 13.192C57.12 13.304 56.88 13.368 56.432 13.384C55.984 13.384 55.408 13.536 54.704 13.84C54 14.128 53.344 14.552 52.736 15.112C51.936 15.832 51.536 16.552 51.536 17.272C51.536 17.72 51.752 18.12 52.184 18.472C52.616 18.824 53.44 19 54.656 19C55.872 19 57.072 18.808 58.256 18.424C60.816 17.576 62.416 16.648 63.056 15.64C63.312 15.272 63.44 14.96 63.44 14.704C63.44 13.968 62.992 13.392 62.096 12.976C61.056 12.496 59.6 11.944 57.728 11.32C57.008 11.08 56.392 10.768 55.88 10.384C55.384 9.984 55.136 9.512 55.136 8.968C55.136 8.408 55.432 7.864 56.024 7.336C56.632 6.792 57.36 6.36 58.208 6.04C60.032 5.352 61.576 5.008 62.84 5.008C64.6 5.008 65.48 5.448 65.48 6.328Z" fill="black"/>
<path d="M63.08 19.132C62.952 19.132 62.812 19.092 62.66 19.012C62.516 18.94 62.392 18.836 62.288 18.7C62.184 18.556 62.132 18.404 62.132 18.244C62.132 18.084 62.168 17.932 62.24 17.788C62.4 17.452 62.656 17.128 63.008 16.816C63.368 16.496 63.74 16.224 64.124 16C64.508 15.776 64.812 15.636 65.036 15.58C65.26 15.524 65.476 15.496 65.684 15.496C65.9 15.496 66.084 15.552 66.236 15.664C66.388 15.768 66.464 15.88 66.464 16C66.464 16.04 66.46 16.064 66.452 16.072C66.444 16.08 66.424 16.076 66.392 16.06C66.296 15.908 66.096 15.832 65.792 15.832C65.496 15.832 65.156 15.932 64.772 16.132C64.396 16.324 64.04 16.568 63.704 16.864C63.424 17.128 63.176 17.428 62.96 17.764C62.752 18.092 62.648 18.332 62.648 18.484C62.648 18.78 62.732 18.928 62.9 18.928C63.068 18.928 63.324 18.792 63.668 18.52C64.236 18.04 64.624 17.688 64.832 17.464C65.568 16.672 65.964 16.276 66.02 16.276C66.116 16.276 66.232 16.304 66.368 16.36C66.504 16.416 66.548 16.484 66.5 16.564C66.092 17.14 65.852 17.72 65.78 18.304C65.772 18.376 65.768 18.468 65.768 18.58C65.768 18.692 65.8 18.784 65.864 18.856C65.984 18.984 66.148 18.992 66.356 18.88C66.564 18.768 66.852 18.544 67.22 18.208C67.596 17.872 67.896 17.544 68.12 17.224C68.152 17.184 68.188 17.176 68.228 17.2C68.268 17.216 68.288 17.232 68.288 17.248C68.288 17.368 68.096 17.632 67.712 18.04C67.336 18.44 67.048 18.712 66.848 18.856C66.472 19.136 66.124 19.276 65.804 19.276C65.5 19.276 65.296 19.124 65.192 18.82C65.168 18.724 65.156 18.616 65.156 18.496C65.156 18.136 65.232 17.756 65.384 17.356C65.352 17.372 65.204 17.532 64.94 17.836C64.676 18.14 64.368 18.432 64.016 18.712C63.672 18.992 63.36 19.132 63.08 19.132ZM71.3124 15.592C71.4964 15.592 71.5884 15.692 71.5884 15.892C71.5884 16.084 71.4964 16.352 71.3124 16.696C71.1284 17.04 70.9924 17.32 70.9044 17.536C70.7524 17.904 70.6764 18.2 70.6764 18.424C70.6764 18.64 70.7084 18.784 70.7724 18.856C70.8924 18.984 71.0564 18.992 71.2644 18.88C71.4724 18.76 71.7604 18.536 72.1284 18.208C72.5044 17.872 72.8044 17.544 73.0284 17.224C73.0604 17.184 73.0964 17.176 73.1364 17.2C73.1844 17.216 73.2084 17.236 73.2084 17.26C73.2084 17.276 73.2004 17.296 73.1844 17.32C73.0644 17.536 72.8484 17.812 72.5364 18.148C72.2244 18.484 71.9244 18.756 71.6364 18.964C71.3484 19.164 71.0644 19.264 70.7844 19.264C70.5124 19.256 70.3204 19.192 70.2084 19.072C70.0964 18.96 70.0404 18.816 70.0404 18.64C70.0404 18.464 70.0564 18.296 70.0884 18.136C70.1204 17.968 70.1804 17.776 70.2684 17.56C70.4124 17.216 70.5364 16.948 70.6404 16.756C70.7524 16.564 70.8084 16.44 70.8084 16.384C70.8084 16.32 70.7764 16.288 70.7124 16.288C70.5844 16.288 70.3404 16.444 69.9804 16.756C69.7324 16.988 69.3644 17.428 68.8764 18.076C68.3964 18.716 68.1244 19.056 68.0604 19.096C67.7724 19.24 67.5924 19.312 67.5204 19.312C67.4484 19.312 67.4124 19.3 67.4124 19.276C67.4124 19.252 67.4204 19.216 67.4364 19.168C67.4524 19.128 67.5284 18.912 67.6644 18.52C67.8084 18.128 67.9604 17.7 68.1204 17.236C68.2884 16.764 68.3884 16.48 68.4204 16.384C68.4604 16.288 68.4844 16.208 68.4924 16.144C68.5084 16.072 68.5244 16.012 68.5404 15.964C68.5564 15.916 68.5844 15.864 68.6244 15.808C68.6724 15.744 68.7324 15.712 68.8044 15.712C68.8764 15.704 68.9684 15.712 69.0804 15.736C69.1924 15.752 69.2484 15.8 69.2484 15.88C69.2484 15.936 69.2044 16.06 69.1164 16.252C69.0284 16.436 68.7764 17.08 68.3604 18.184C68.6484 17.832 69.0124 17.428 69.4524 16.972C69.8924 16.508 70.2644 16.156 70.5684 15.916C70.8724 15.7 71.1204 15.592 71.3124 15.592ZM75.8865 16.36L75.9465 16.12C75.9465 15.96 75.8865 15.88 75.7665 15.88C75.4385 15.88 74.9905 16.136 74.4225 16.648C73.8545 17.16 73.4945 17.676 73.3425 18.196C73.3025 18.332 73.2825 18.456 73.2825 18.568C73.2825 18.672 73.3065 18.76 73.3545 18.832C73.4505 18.976 73.5985 19.048 73.7985 19.048C73.9985 19.048 74.2145 19.02 74.4465 18.964C74.9585 18.82 75.3825 18.616 75.7185 18.352C76.0625 18.08 76.4225 17.704 76.7985 17.224C76.8305 17.184 76.8665 17.172 76.9065 17.188C76.9545 17.204 76.9785 17.228 76.9785 17.26C76.9785 17.284 76.9665 17.324 76.9425 17.38C76.5585 17.9 76.1545 18.324 75.7305 18.652C75.3145 18.972 74.8305 19.18 74.2785 19.276C74.1185 19.3 73.9705 19.312 73.8345 19.312C73.4425 19.312 73.1425 19.216 72.9345 19.024C72.7345 18.832 72.6345 18.62 72.6345 18.388C72.6345 18.156 72.6905 17.904 72.8025 17.632C73.0025 17.176 73.4305 16.708 74.0865 16.228C74.7425 15.748 75.2625 15.508 75.6465 15.508C75.7425 15.508 75.8345 15.52 75.9225 15.544C76.1465 15.624 76.2585 15.752 76.2585 15.928C76.2585 16.048 76.2145 16.184 76.1265 16.336C76.0385 16.488 75.9705 16.544 75.9225 16.504C75.8825 16.456 75.8705 16.408 75.8865 16.36ZM80.7757 11.98C80.9197 11.924 81.0437 11.896 81.1477 11.896C81.4997 11.896 81.7317 11.992 81.8437 12.184C81.9077 12.28 81.9397 12.364 81.9397 12.436C81.9397 12.98 81.4837 13.664 80.5717 14.488C79.7637 15.2 79.0197 15.812 78.3397 16.324C78.1157 16.828 77.8837 17.448 77.6437 18.184C77.9317 17.832 78.2957 17.424 78.7357 16.96C79.6237 16.04 80.2437 15.58 80.5957 15.58C80.7717 15.58 80.8637 15.668 80.8717 15.844C80.8877 16.028 80.8477 16.204 80.7517 16.372C80.6637 16.54 80.5797 16.696 80.4997 16.84C80.1237 17.464 79.9357 18.02 79.9357 18.508C79.9357 18.668 79.9677 18.784 80.0317 18.856C80.1437 18.984 80.3037 18.992 80.5117 18.88C80.7197 18.768 81.0077 18.544 81.3757 18.208C81.7517 17.872 82.0557 17.544 82.2877 17.224C82.3277 17.184 82.3637 17.176 82.3957 17.2C82.4357 17.216 82.4557 17.236 82.4557 17.26C82.4557 17.276 82.4477 17.296 82.4317 17.32C82.3117 17.536 82.0957 17.812 81.7837 18.148C81.4717 18.476 81.2197 18.712 81.0277 18.856C80.6597 19.136 80.3077 19.276 79.9717 19.276C79.6677 19.276 79.4637 19.124 79.3597 18.82C79.3357 18.748 79.3237 18.664 79.3237 18.568C79.3237 18.464 79.3317 18.356 79.3477 18.244C79.3877 17.908 79.5997 17.384 79.9837 16.672C80.0637 16.528 80.1037 16.428 80.1037 16.372C80.1037 16.308 80.0717 16.276 80.0077 16.276C79.8797 16.276 79.6317 16.436 79.2637 16.756C79.0157 16.988 78.6477 17.428 78.1597 18.076C77.6797 18.716 77.4077 19.056 77.3437 19.096C77.0557 19.24 76.8757 19.312 76.8037 19.312C76.7397 19.312 76.7037 19.3 76.6957 19.276C76.6877 19.26 76.6917 19.236 76.7077 19.204C76.7237 19.172 76.7877 18.996 76.8997 18.676C77.2757 17.612 77.5317 16.908 77.6677 16.564C77.4037 16.9 77.0757 17.28 76.6837 17.704C76.6197 17.768 76.5877 17.756 76.5877 17.668C76.5877 17.572 76.6237 17.476 76.6957 17.38C76.7677 17.284 76.9157 17.1 77.1397 16.828C77.3717 16.548 77.5357 16.34 77.6317 16.204C77.5597 16.164 77.5197 16.108 77.5117 16.036C77.5117 15.964 77.5357 15.916 77.5837 15.892C77.6397 15.86 77.7277 15.868 77.8477 15.916C77.9277 15.804 77.9997 15.68 78.0637 15.544C79.0157 13.496 79.9197 12.308 80.7757 11.98ZM81.4477 12.88C81.5517 12.688 81.6037 12.528 81.6037 12.4C81.6037 12.264 81.5437 12.196 81.4237 12.196C81.3117 12.196 81.1597 12.268 80.9677 12.412C80.0877 13.084 79.2917 14.208 78.5797 15.784C79.0997 15.448 79.6437 15 80.2117 14.44C80.7797 13.88 81.1917 13.36 81.4477 12.88ZM84.9043 15.508C85.3363 15.508 85.5523 15.716 85.5523 16.132C85.5523 16.348 85.4923 16.524 85.3723 16.66C85.1723 16.956 84.8483 17.216 84.4003 17.44C83.9523 17.656 83.5723 17.776 83.2603 17.8C83.1483 17.808 83.0883 17.776 83.0803 17.704C83.0723 17.672 83.0803 17.652 83.1043 17.644C83.1363 17.636 83.1603 17.632 83.1763 17.632C83.3603 17.616 83.5963 17.528 83.8843 17.368C84.4203 17.08 84.8123 16.784 85.0603 16.48C85.1643 16.336 85.2163 16.2 85.2163 16.072C85.2163 15.936 85.1523 15.868 85.0243 15.868C84.9203 15.868 84.7803 15.912 84.6043 16C84.2283 16.176 83.8323 16.484 83.4163 16.924C83.0003 17.356 82.7283 17.78 82.6003 18.196C82.5603 18.324 82.5403 18.452 82.5403 18.58C82.5403 18.7 82.5923 18.816 82.6963 18.928C82.8003 19.04 82.9603 19.096 83.1763 19.096C83.4163 19.096 83.6923 19.032 84.0043 18.904C84.9083 18.536 85.6043 17.98 86.0923 17.236C86.1403 17.172 86.1843 17.16 86.2243 17.2C86.2563 17.216 86.2723 17.236 86.2723 17.26C86.2723 17.284 86.2603 17.312 86.2363 17.344C85.9963 17.744 85.6923 18.1 85.3243 18.412C84.6123 19.02 83.9203 19.324 83.2483 19.324C82.6723 19.324 82.2683 19.152 82.0363 18.808C81.9483 18.672 81.9043 18.508 81.9043 18.316C81.9043 18.124 81.9563 17.896 82.0603 17.632C82.2603 17.176 82.6883 16.708 83.3443 16.228C84.0003 15.748 84.5203 15.508 84.9043 15.508ZM89.1084 16.456C88.5404 16.28 88.1084 16.192 87.8124 16.192C87.5244 16.192 87.2484 16.316 86.9844 16.564C86.7204 16.804 86.4804 17.076 86.2644 17.38C86.1364 17.532 86.0484 17.588 86.0004 17.548C85.9524 17.508 85.9564 17.444 86.0124 17.356L86.8164 16.252C86.9684 16.036 87.1564 15.868 87.3804 15.748C87.4524 15.708 87.5204 15.688 87.5844 15.688C87.6484 15.688 87.7164 15.692 87.7884 15.7C87.8604 15.7 87.9204 15.704 87.9684 15.712C88.0244 15.712 88.1364 15.736 88.3044 15.784C88.4724 15.824 88.5724 15.848 88.6044 15.856L89.5284 16.072C89.6564 15.952 89.7924 15.864 89.9364 15.808C90.0884 15.752 90.2044 15.724 90.2844 15.724C90.3644 15.724 90.4244 15.768 90.4644 15.856C90.4724 16.048 90.3604 16.212 90.1284 16.348C89.9044 16.484 89.7404 16.552 89.6364 16.552C89.5404 16.552 89.4724 16.548 89.4324 16.54C88.7364 17.108 88.1764 17.58 87.7524 17.956C87.3284 18.332 87.0924 18.54 87.0444 18.58L87.4044 18.76C87.9564 19.08 88.3724 19.24 88.6524 19.24C88.8364 19.24 89.0404 19.176 89.2644 19.048C89.4884 18.92 89.8084 18.664 90.2244 18.28C90.6404 17.888 90.9604 17.536 91.1844 17.224C91.2244 17.168 91.2684 17.152 91.3164 17.176C91.3724 17.192 91.4004 17.208 91.4004 17.224C91.4004 17.336 91.1524 17.644 90.6564 18.148C90.1684 18.652 89.8044 18.992 89.5644 19.168C89.1644 19.464 88.7764 19.612 88.4004 19.612C88.0244 19.612 87.5884 19.456 87.0924 19.144C86.9084 19.032 86.7524 18.956 86.6244 18.916C86.2644 19.188 85.9924 19.324 85.8084 19.324C85.7604 19.324 85.7164 19.316 85.6764 19.3C85.6204 19.244 85.5924 19.168 85.5924 19.072C85.5924 18.976 85.6404 18.868 85.7364 18.748C85.8884 18.54 86.1124 18.436 86.4084 18.436C86.5524 18.436 86.7084 18.464 86.8764 18.52C87.1004 18.336 87.2244 18.228 87.2484 18.196C87.6484 17.852 88.2684 17.272 89.1084 16.456Z" fill="black"/>
<path d="M25.418 11.86C25.53 11.6547 25.586 11.496 25.586 11.384C25.586 11.188 25.5067 11.09 25.348 11.09C25.2173 11.09 25.054 11.1647 24.858 11.314C24.1113 11.8927 23.388 12.8073 22.688 14.058C22.128 15.066 21.7173 15.9293 21.456 16.648C22.1 16.2093 22.8187 15.4953 23.612 14.506C24.4147 13.5167 25.0167 12.6347 25.418 11.86ZM21.246 17.208C21.134 17.5253 21.0733 17.74 21.064 17.852C21.0547 17.9547 21.05 18.0993 21.05 18.286C21.05 18.4633 21.0967 18.6267 21.19 18.776C21.3487 19.028 21.6147 19.0467 21.988 18.832C22.268 18.6827 22.6227 18.412 23.052 18.02C23.4813 17.6187 23.8127 17.2547 24.046 16.928C24.0647 16.9 24.0927 16.886 24.13 16.886C24.214 16.886 24.2373 16.9467 24.2 17.068C24.06 17.32 23.7987 17.642 23.416 18.034C23.0427 18.426 22.702 18.7387 22.394 18.972C22.086 19.196 21.778 19.308 21.47 19.308C20.7607 19.308 20.406 18.9627 20.406 18.272C20.406 18.244 20.406 18.216 20.406 18.188C20.4433 17.5347 20.7747 16.55 21.4 15.234C22.0253 13.9087 22.59 12.91 23.094 12.238L23.528 11.692C23.6307 11.5707 23.78 11.4213 23.976 11.244C24.3493 10.8893 24.732 10.712 25.124 10.712C25.5253 10.712 25.796 10.8333 25.936 11.076C25.9827 11.16 26.006 11.2813 26.006 11.44C26.006 11.5987 25.936 11.8227 25.796 12.112C24.8347 13.7827 23.318 15.4813 21.246 17.208ZM27.7749 15.22C27.9429 15.22 28.1436 15.3087 28.3769 15.486C28.6103 15.654 28.7409 15.822 28.7689 15.99C28.7783 16.0553 28.7829 16.116 28.7829 16.172C28.7829 16.592 28.5776 17.0447 28.1669 17.53C27.7563 18.006 27.2943 18.412 26.7809 18.748C25.9876 19.2893 25.1989 19.56 24.4149 19.56C24.0976 19.56 23.8456 19.518 23.6589 19.434C23.5096 19.3593 23.6963 19.322 24.2189 19.322C24.7883 19.322 25.5256 18.986 26.4309 18.314C27.3083 17.698 27.8403 16.9607 28.0269 16.102C28.0549 15.9713 28.0503 15.8407 28.0129 15.71C27.9849 15.57 27.9056 15.5 27.7749 15.5C27.3549 15.5 26.8043 15.794 26.1229 16.382C25.8336 16.6247 25.5349 16.9513 25.2269 17.362C24.9283 17.7727 24.7789 18.1087 24.7789 18.37C24.7789 18.4073 24.7836 18.4493 24.7929 18.496C24.8116 18.5333 24.7976 18.5987 24.7509 18.692C24.6296 18.9347 24.4569 18.9207 24.2329 18.65C24.1769 18.51 24.1489 18.3653 24.1489 18.216C24.1489 17.7867 24.2143 17.334 24.3449 16.858C24.3076 16.8953 24.2236 17.012 24.0929 17.208C23.9716 17.3947 23.8269 17.5813 23.6589 17.768C23.5749 17.8613 23.5096 17.8613 23.4629 17.768C23.4536 17.7493 23.4489 17.726 23.4489 17.698C23.4489 17.6607 23.4676 17.6187 23.5049 17.572C24.2329 16.6667 24.6576 16.0787 24.7789 15.808C24.9469 15.3413 25.2036 14.7347 25.5489 13.988C25.8943 13.232 26.2116 12.63 26.5009 12.182C27.0983 11.2393 27.7143 10.768 28.3489 10.768C28.4609 10.768 28.5776 10.782 28.6989 10.81L28.9789 10.908C29.2496 11.0667 29.3849 11.272 29.3849 11.524C29.3849 11.7667 29.3103 12.0327 29.1609 12.322C28.9183 12.8167 28.3956 13.442 27.5929 14.198C26.7903 14.9447 26.0109 15.5793 25.2549 16.102C25.0683 16.438 24.9236 16.8767 24.8209 17.418C25.1663 16.9047 25.6143 16.41 26.1649 15.934C26.7249 15.458 27.2616 15.22 27.7749 15.22ZM27.3269 13.96C28.4376 12.84 28.9929 12.0093 28.9929 11.468C28.9929 11.244 28.9089 11.132 28.7409 11.132C28.6103 11.132 28.4329 11.216 28.2089 11.384C27.2476 12.1213 26.3143 13.5073 25.4089 15.542C26.0436 15.122 26.6829 14.5947 27.3269 13.96ZM32.544 14.926C33.048 14.926 33.3 15.1687 33.3 15.654C33.3 15.906 33.23 16.1113 33.09 16.27C32.8567 16.6153 32.4787 16.9187 31.956 17.18C31.4333 17.432 30.99 17.572 30.626 17.6C30.4953 17.6093 30.4253 17.572 30.416 17.488C30.4067 17.4507 30.416 17.4273 30.444 17.418C30.4813 17.4087 30.5093 17.404 30.528 17.404C30.7427 17.3853 31.018 17.2827 31.354 17.096C31.9793 16.76 32.4367 16.4147 32.726 16.06C32.8473 15.892 32.908 15.7333 32.908 15.584C32.908 15.4253 32.8333 15.346 32.684 15.346C32.5627 15.346 32.3993 15.3973 32.194 15.5C31.7553 15.7053 31.2933 16.0647 30.808 16.578C30.3227 17.082 30.0053 17.5767 29.856 18.062C29.8093 18.2113 29.786 18.3607 29.786 18.51C29.786 18.65 29.8467 18.7853 29.968 18.916C30.0893 19.0467 30.276 19.112 30.528 19.112C30.808 19.112 31.13 19.0373 31.494 18.888C32.5487 18.4587 33.3607 17.81 33.93 16.942C33.986 16.8673 34.0373 16.8533 34.084 16.9C34.1213 16.9187 34.14 16.942 34.14 16.97C34.14 16.998 34.126 17.0307 34.098 17.068C33.818 17.5347 33.4633 17.95 33.034 18.314C32.2033 19.0233 31.396 19.378 30.612 19.378C29.94 19.378 29.4687 19.1773 29.198 18.776C29.0953 18.6173 29.044 18.426 29.044 18.202C29.044 17.978 29.1047 17.712 29.226 17.404C29.4593 16.872 29.9587 16.326 30.724 15.766C31.4893 15.206 32.096 14.926 32.544 14.926ZM35.6287 19.35C35.1527 19.35 34.9147 19.0653 34.9147 18.496C34.9147 17.9173 35.3254 17.208 36.1467 16.368C36.212 16.3027 36.2587 16.2513 36.2867 16.214L36.3847 16.074C36.5154 15.8967 36.576 15.7847 36.5667 15.738L36.5247 15.612C36.4874 15.5 36.3334 15.4207 36.0627 15.374C35.792 15.318 35.5727 15.29 35.4047 15.29C34.5647 16.4753 34.0794 17.152 33.9487 17.32C33.818 17.488 33.7294 17.558 33.6827 17.53C33.636 17.502 33.6127 17.4693 33.6127 17.432C33.6127 17.3947 33.6407 17.3387 33.6967 17.264C34.2007 16.648 34.6347 15.99 34.9987 15.29C34.8867 15.2713 34.8027 15.234 34.7467 15.178C34.6907 15.1127 34.686 15.01 34.7327 14.87C34.7794 14.7207 34.9194 14.5247 35.1527 14.282C35.3954 14.0393 35.6054 13.876 35.7827 13.792C35.96 13.708 36.072 13.6567 36.1187 13.638C36.1654 13.6193 36.2167 13.61 36.2727 13.61C36.3847 13.61 36.3474 13.778 36.1607 14.114L35.6147 14.982C36.0347 15.01 36.394 15.024 36.6927 15.024L37.1827 15.01C37.3414 15.01 37.458 15.0333 37.5327 15.08C37.6074 15.1173 37.626 15.1873 37.5887 15.29C37.5234 15.4673 37.36 15.7053 37.0987 16.004C36.5387 16.6573 36.1187 17.3527 35.8387 18.09C35.7734 18.2673 35.7407 18.4213 35.7407 18.552C35.7407 18.8227 35.8387 18.958 36.0347 18.958C36.1 18.958 36.2214 18.9067 36.3987 18.804C36.5854 18.7013 36.8934 18.4587 37.3227 18.076C37.752 17.684 38.0974 17.3013 38.3587 16.928C38.396 16.8813 38.438 16.872 38.4847 16.9C38.5407 16.9187 38.5687 16.942 38.5687 16.97C38.5687 16.9887 38.5594 17.012 38.5407 17.04C38.4007 17.292 38.1487 17.614 37.7847 18.006C37.4207 18.398 37.066 18.7153 36.7207 18.958C36.3847 19.2193 36.0207 19.35 35.6287 19.35ZM40.4367 15.08C41.1554 15.0147 41.5894 14.982 41.7387 14.982C41.8974 14.982 41.9767 15.0053 41.9767 15.052C41.9767 15.108 41.8647 15.1687 41.6407 15.234C41.4261 15.29 40.8941 15.3647 40.0447 15.458C39.9981 15.542 39.9421 15.64 39.8767 15.752C39.7367 15.976 39.6621 16.1113 39.6527 16.158C39.1207 17.222 38.8407 17.8987 38.8127 18.188C38.8034 18.272 38.7987 18.3793 38.7987 18.51C38.7987 18.6407 38.8361 18.748 38.9107 18.832C39.0414 18.9813 39.2281 18.9907 39.4707 18.86C39.7134 18.7293 40.0494 18.468 40.4787 18.076C40.9174 17.684 41.2721 17.3013 41.5427 16.928C41.5801 16.8813 41.6267 16.872 41.6827 16.9C41.8227 16.9653 41.5801 17.334 40.9547 18.006C40.3574 18.65 39.8581 19.0467 39.4567 19.196C39.2234 19.28 39.0274 19.322 38.8687 19.322C38.4954 19.322 38.2481 19.1447 38.1267 18.79C38.1081 18.7247 38.0987 18.6453 38.0987 18.552C38.0987 18.2253 38.2481 17.7307 38.5467 17.068C38.5001 17.1707 38.3181 17.404 38.0007 17.768C37.9167 17.8613 37.8514 17.8613 37.8047 17.768C37.7954 17.7493 37.7907 17.726 37.7907 17.698C37.7907 17.6607 37.8094 17.6187 37.8467 17.572C38.3041 17.0027 38.6634 16.522 38.9247 16.13C38.9247 16.1207 39.0274 15.9247 39.2327 15.542C39.1394 15.5607 39.0414 15.57 38.9387 15.57C38.8454 15.57 38.7754 15.542 38.7287 15.486C38.6821 15.4207 38.6774 15.346 38.7147 15.262C38.7801 15.1127 39.0274 15.0287 39.4567 15.01C39.4661 14.9913 39.4847 14.982 39.5127 14.982L40.2127 13.68C40.2501 13.6053 40.2921 13.5307 40.3387 13.456C40.3854 13.372 40.4181 13.3113 40.4367 13.274C40.4647 13.2273 40.4927 13.1807 40.5207 13.134C40.5487 13.0873 40.5721 13.0547 40.5907 13.036C40.6094 13.0173 40.6281 12.9987 40.6467 12.98C40.6841 12.924 40.7914 12.896 40.9687 12.896C41.1554 12.896 41.2814 12.9473 41.3467 13.05C41.3747 13.0873 41.3887 13.1527 41.3887 13.246C41.3887 13.33 41.3561 13.428 41.2907 13.54C41.2254 13.6427 41.1554 13.7173 41.0807 13.764C41.0061 13.8107 40.9547 13.862 40.9267 13.918L40.2547 15.094L40.4367 15.08ZM44.2529 17.46C44.4209 17.1147 44.5049 16.8487 44.5049 16.662C44.5049 16.4753 44.4816 16.3307 44.4349 16.228C44.3976 16.116 44.4163 16.0227 44.4909 15.948C44.5749 15.8733 44.6776 15.8453 44.7989 15.864C44.9856 15.9107 45.0789 16.1207 45.0789 16.494C45.0789 16.8673 44.8596 17.3573 44.4209 17.964C44.4303 18.216 44.5609 18.342 44.8129 18.342C45.0649 18.342 45.4476 18.0713 45.9609 17.53C46.2036 17.25 46.3529 17.068 46.4089 16.984C46.4743 16.9 46.5303 16.872 46.5769 16.9C46.6236 16.9187 46.6469 16.9373 46.6469 16.956C46.6469 17.0493 46.4789 17.292 46.1429 17.684C45.6109 18.3373 45.1396 18.664 44.7289 18.664C44.4583 18.664 44.2669 18.5473 44.1549 18.314C43.9683 18.51 43.7863 18.692 43.6089 18.86C43.2449 19.168 42.8389 19.322 42.3909 19.322C42.1389 19.322 41.9289 19.2613 41.7609 19.14C41.4343 18.944 41.2709 18.594 41.2709 18.09C41.2709 17.5393 41.4576 16.9793 41.8309 16.41C42.0456 16.074 42.2976 15.78 42.5869 15.528C43.0443 15.1267 43.4783 14.926 43.8889 14.926C43.9916 14.926 44.0896 14.94 44.1829 14.968C44.4629 15.0613 44.6029 15.2387 44.6029 15.5C44.6029 15.7147 44.5469 15.822 44.4349 15.822C44.3883 15.8033 44.3649 15.7333 44.3649 15.612C44.3649 15.444 44.2716 15.36 44.0849 15.36C43.7583 15.36 43.3383 15.6587 42.8249 16.256C42.3116 16.8533 42.0036 17.4553 41.9009 18.062C41.8823 18.1647 41.8729 18.2813 41.8729 18.412C41.8729 18.5333 41.9149 18.678 41.9989 18.846C42.0829 19.0047 42.2369 19.084 42.4609 19.084C42.6943 19.084 42.9463 18.9813 43.2169 18.776C43.4876 18.5707 43.7303 18.3093 43.9449 17.992L43.9029 17.908C43.8656 17.7587 43.8843 17.6373 43.9589 17.544C44.0336 17.4507 44.1316 17.4227 44.2529 17.46Z" fill="black"/>
<path d="M16.728 18.6C16.232 18.6 15.872 18.384 15.648 17.952C15.424 17.504 15.312 16.944 15.312 16.272C15.312 15.584 15.456 14.648 15.744 13.464C15.184 13.416 14.232 13.304 12.888 13.128C10.664 15.88 8.816 17.792 7.344 18.864C6.08 19.808 4.768 20.28 3.408 20.28C2.544 20.28 1.8 20.064 1.176 19.632C0.568 19.2 0.264 18.56 0.264 17.712C0.264 17.552 0.304 17.408 0.384 17.28C0.464 17.136 0.544 17.096 0.624 17.16C0.704 17.224 0.744 17.408 0.744 17.712C0.744 18.256 0.952 18.664 1.368 18.936C1.8 19.208 2.32 19.344 2.928 19.344C4.24 19.344 5.528 18.912 6.792 18.048C8.072 17.2 9.808 15.528 12 13.032C9.648 12.744 8.096 12.6 7.344 12.6C5.312 12.6 4.056 13.264 3.576 14.592C3.512 14.768 3.48 14.936 3.48 15.096C3.48 15.24 3.512 15.376 3.576 15.504C3.64 15.616 3.648 15.712 3.6 15.792C3.568 15.856 3.504 15.888 3.408 15.888C3.312 15.872 3.232 15.816 3.168 15.72C2.992 15.416 2.904 15.12 2.904 14.832C2.904 13.84 3.08 13.112 3.432 12.648C3.8 12.168 4.224 11.864 4.704 11.736C5.28 11.576 5.952 11.496 6.72 11.496C7.488 11.496 9.424 11.8 12.528 12.408C13.392 11.416 14.704 9.824 16.464 7.632C18.224 5.424 19.104 4.304 19.104 4.272H19.128C19.144 4.256 19.184 4.232 19.248 4.2C19.632 3.976 20.048 3.864 20.496 3.864C20.656 3.864 20.736 3.944 20.736 4.104C20.736 4.12 20.728 4.144 20.712 4.176C20.696 4.192 20.68 4.224 20.664 4.272C20.648 4.304 20.632 4.336 20.616 4.368C19.08 6.912 17.888 9.776 17.04 12.96L16.968 13.128L17.568 13.152C17.696 13.168 17.92 13.176 18.24 13.176C18.576 13.176 18.928 13.104 19.296 12.96C19.664 12.8 19.896 12.632 19.992 12.456C20.104 12.28 20.2 12.24 20.28 12.336C20.36 12.432 20.368 12.536 20.304 12.648C20.128 12.968 19.816 13.2 19.368 13.344C18.984 13.504 18.6 13.584 18.216 13.584C17.848 13.584 17.608 13.584 17.496 13.584L16.848 13.56C16.544 14.952 16.392 16.064 16.392 16.896C16.392 17.712 16.616 18.12 17.064 18.12C17.496 18.12 18.168 17.776 19.08 17.088C19.992 16.4 20.848 15.512 21.648 14.424C21.696 14.36 21.76 14.344 21.84 14.376C21.92 14.408 21.96 14.448 21.96 14.496C21.96 14.544 21.944 14.608 21.912 14.688C21.896 14.752 21.776 14.928 21.552 15.216C20.88 16.112 20.056 16.96 19.08 17.76C18.376 18.32 17.592 18.6 16.728 18.6ZM18.048 6.528C18.064 6.496 18.08 6.456 18.096 6.408C18.128 6.344 18.152 6.296 18.168 6.264C16.168 9 14.56 11.112 13.344 12.6L15.864 13.008C16.312 11.264 17.04 9.104 18.048 6.528Z" fill="black"/>
</svg>
