<svg width="1440" height="1000" viewBox="0 0 1440 1000" fill="none" xmlns="http://www.w3.org/2000/svg">
<path d="M0 0H705V0C705 55.2285 749.772 100 805 100H1224.76C1273.48 100 1320.75 116.524 1358.85 146.872V146.872C1410.13 187.71 1440 249.687 1440 315.238V1024H0V0Z" fill="#5350FF"/>
<path d="M0 0H705V0C705 55.2285 749.772 100 805 100H1224.76C1273.48 100 1320.75 116.524 1358.85 146.872V146.872C1410.13 187.71 1440 249.687 1440 315.238V1024H0V0Z" fill="url(#paint0_linear)"/>
<defs>
<linearGradient id="paint0_linear" x1="943" y1="-1.95834e-05" x2="720" y2="1024" gradientUnits="userSpaceOnUse">
<stop stop-color="#DEDDFF"/>
<stop offset="1" stop-color="white" stop-opacity="0"/>
</linearGradient>
</defs>
</svg>
