<svg width="1439" height="1027" viewBox="0 0 1439 1027" fill="none" xmlns="http://www.w3.org/2000/svg">
<path d="M1438 1026.5V117H754.082C731.99 117 714 99.0914 714 77V1H1V1026.5H1438Z" fill="#66C9E8"/>
<path d="M1438 1026.5V117H754.082C731.99 117 714 99.0914 714 77V1H1V1026.5H1438Z" fill="url(#paint0_linear)"/>
<path d="M1438 1026.5V117H754.082C731.99 117 714 99.0914 714 77V1H1V1026.5H1438Z" fill="url(#paint1_linear)"/>
<path d="M1438 117V1026.5H1V1H714V77C714 99.0914 731.99 117 754.082 117M1438 117H754.082M1438 117C1168.9 117 1012.32 117 754.082 117" stroke="black"/>
<defs>
<linearGradient id="paint0_linear" x1="805.5" y1="-663.5" x2="719" y2="1053" gradientUnits="userSpaceOnUse">
<stop stop-color="white"/>
<stop offset="1" stop-color="white" stop-opacity="0"/>
</linearGradient>
<linearGradient id="paint1_linear" x1="719.5" y1="1" x2="719.5" y2="1026.5" gradientUnits="userSpaceOnUse">
<stop offset="0.128001" stop-color="white"/>
<stop offset="1" stop-color="white" stop-opacity="0"/>
</linearGradient>
</defs>
</svg>
