<svg width="16" height="16" viewBox="0 0 16 16" fill="none" xmlns="http://www.w3.org/2000/svg">
<path d="M15.48 1.328C15.48 1.68 15.336 2.088 15.048 2.552C14.808 2.984 14.536 3.28 14.232 3.44C13.944 3.6 13.8 3.584 13.8 3.392C13.8 3.376 13.888 3.28 14.064 3.104C14.592 2.608 14.856 2.2 14.856 1.88C14.856 1.192 14.176 0.847999 12.816 0.847999C12.24 0.847999 11.48 0.959999 10.536 1.184C9.592 1.392 8.68 1.736 7.8 2.216C6.776 2.776 6.264 3.264 6.264 3.68C6.264 4.016 6.576 4.336 7.2 4.64C7.536 4.8 8.2 5.072 9.192 5.456C10.2 5.824 11.008 6.152 11.616 6.44C12.24 6.712 12.824 7.104 13.368 7.616C13.928 8.128 14.208 8.696 14.208 9.32C14.208 9.944 13.84 10.624 13.104 11.36C11.984 12.432 10.528 13.32 8.736 14.024C6.944 14.744 5.408 15.104 4.128 15.104C1.6 15.104 0.336 14.392 0.336 12.968C0.336 11.544 1.112 10.336 2.664 9.344C3.944 8.464 5.288 8.024 6.696 8.024C7.032 8.024 7.184 8.08 7.152 8.192C7.12 8.304 6.88 8.368 6.432 8.384C5.984 8.384 5.408 8.536 4.704 8.84C4 9.128 3.344 9.552 2.736 10.112C1.936 10.832 1.536 11.552 1.536 12.272C1.536 12.72 1.752 13.12 2.184 13.472C2.616 13.824 3.44 14 4.656 14C5.872 14 7.072 13.808 8.256 13.424C10.816 12.576 12.416 11.648 13.056 10.64C13.312 10.272 13.44 9.96 13.44 9.704C13.44 8.968 12.992 8.392 12.096 7.976C11.056 7.496 9.6 6.944 7.728 6.32C7.008 6.08 6.392 5.768 5.88 5.384C5.384 4.984 5.136 4.512 5.136 3.968C5.136 3.408 5.432 2.864 6.024 2.336C6.632 1.792 7.36 1.36 8.208 1.04C10.032 0.352 11.576 0.0079999 12.84 0.0079999C14.6 0.0079999 15.48 0.448 15.48 1.328Z" fill="black"/>
</svg>
